<svg width="23" height="23" viewBox="0 0 23 23" fill="none" xmlns="http://www.w3.org/2000/svg">
<g filter="url(#filter0_d_2118_19)">
<path d="M11.5 0C7.3576 0 4 3.3576 4 7.5C4 11.6424 7.3576 15 11.5 15C15.6424 15 19 11.6424 19 7.5C19 3.3576 15.6424 0 11.5 0ZM15.4 8.1H12.1V11.4C12.1 11.5591 12.0368 11.7117 11.9243 11.8243C11.8117 11.9368 11.6591 12 11.5 12C11.3409 12 11.1883 11.9368 11.0757 11.8243C10.9632 11.7117 10.9 11.5591 10.9 11.4V8.1H7.6C7.44087 8.1 7.28826 8.03679 7.17574 7.92426C7.06321 7.81174 7 7.65913 7 7.5C7 7.34087 7.06321 7.18826 7.17574 7.07574C7.28826 6.96321 7.44087 6.9 7.6 6.9H10.9V3.6C10.9 3.44087 10.9632 3.28826 11.0757 3.17574C11.1883 3.06321 11.3409 3 11.5 3C11.6591 3 11.8117 3.06321 11.9243 3.17574C12.0368 3.28826 12.1 3.44087 12.1 3.6V6.9H15.4C15.5591 6.9 15.7117 6.96321 15.8243 7.07574C15.9368 7.18826 16 7.34087 16 7.5C16 7.65913 15.9368 7.81174 15.8243 7.92426C15.7117 8.03679 15.5591 8.1 15.4 8.1Z" fill="#02AB6C"/>
</g>
<defs>
<filter id="filter0_d_2118_19" x="0" y="0" width="23" height="23" filterUnits="userSpaceOnUse" color-interpolation-filters="sRGB">
<feFlood flood-opacity="0" result="BackgroundImageFix"/>
<feColorMatrix in="SourceAlpha" type="matrix" values="0 0 0 0 0 0 0 0 0 0 0 0 0 0 0 0 0 0 127 0" result="hardAlpha"/>
<feOffset dy="4"/>
<feGaussianBlur stdDeviation="2"/>
<feComposite in2="hardAlpha" operator="out"/>
<feColorMatrix type="matrix" values="0 0 0 0 0.00784314 0 0 0 0 0.670588 0 0 0 0 0.423529 0 0 0 0.25 0"/>
<feBlend mode="normal" in2="BackgroundImageFix" result="effect1_dropShadow_2118_19"/>
<feBlend mode="normal" in="SourceGraphic" in2="effect1_dropShadow_2118_19" result="shape"/>
</filter>
</defs>
</svg>
