<svg width="24" height="25" viewBox="0 0 24 25" fill="none" xmlns="http://www.w3.org/2000/svg">
    <rect width="24" height="24" transform="translate(0 0.5)" fill="white"/>
    <path d="M12 13.9545L10.5455 12.5L12 11.0455L13.4545 12.5L12 13.9545ZM10.4545 9.68182L8.63636 7.86364L12 4.5L15.3636 7.86364L13.5455 9.68182L12 8.13636L10.4545 9.68182ZM7.36364 15.8636L4 12.5L7.36364 9.13636L9.18182 10.9545L7.63636 12.5L9.18182 14.0455L7.36364 15.8636ZM16.6364 15.8636L14.8182 14.0455L16.3636 12.5L14.8182 10.9545L16.6364 9.13636L20 12.5L16.6364 15.8636ZM12 20.5L8.63636 17.1364L10.4545 15.3182L12 16.8636L13.5455 15.3182L15.3636 17.1364L12 20.5Z" fill="#02AB6C"/>
    </svg>    