<svg width="40" height="40" viewBox="0 0 40 40" fill="none" xmlns="http://www.w3.org/2000/svg">
<rect x="0.5" y="0.5" width="39" height="39" rx="7.5" fill="white"/>
<rect x="0.5" y="0.5" width="39" height="39" rx="7.5" stroke="#EBEBEB"/>
<path fill-rule="evenodd" clip-rule="evenodd" d="M20.0001 10C20.4793 10.0025 20.9431 10.1698 21.3136 10.4738C21.6841 10.7778 21.9387 11.2 22.0348 11.6696C22.812 11.8878 23.5381 12.2224 24.192 12.6561C24.9665 13.1659 24.1969 14.3256 23.4258 13.8116C22.764 13.3692 22.0231 13.0587 21.2436 12.8971C20.8626 12.8265 20.652 12.4635 20.6901 12.0769C20.7289 11.682 20.3957 11.38 20.0001 11.38C19.6045 11.38 19.2741 11.6806 19.3046 12.0901C19.333 12.478 19.1182 12.8244 18.7511 12.8958C15.9156 13.4763 13.7638 15.9966 13.7638 19.0059V22.8307C13.7638 22.9384 13.7387 23.0447 13.6904 23.141L12.4524 25.6211C12.21 26.1068 12.5286 26.6215 13.0725 26.6222H26.925C27.4702 26.6236 27.7909 26.1082 27.5471 25.6211L26.3043 23.141C26.256 23.0447 26.2308 22.9384 26.2308 22.8307V19.0059C26.2311 17.7846 25.8695 16.5906 25.1917 15.5747C24.679 14.8036 25.8373 14.036 26.3472 14.8085C27.1746 16.052 27.6162 17.5123 27.6164 19.0059V22.6672L28.7871 25.0018C29.4647 26.3589 28.4401 28.0098 26.9236 28.0077H23.3905C23.0677 29.5844 21.6655 30.7802 19.9973 30.7802C18.3292 30.7802 16.927 29.5844 16.6042 28.0077H13.0697C11.556 28.0056 10.5369 26.3562 11.2131 25.0011L12.3783 22.6672V19.0059C12.3783 15.5193 14.7462 12.5632 17.9613 11.6654C18.0594 11.1965 18.3153 10.7754 18.6863 10.4723C19.0573 10.1692 19.521 10.0025 20.0001 10ZM21.9495 28.0077H18.0451C18.1854 28.4135 18.4489 28.7654 18.7989 29.0141C19.149 29.2627 19.568 29.3958 19.9973 29.3946C20.4267 29.3958 20.8457 29.2627 21.1957 29.0141C21.5458 28.7654 21.8093 28.4135 21.9495 28.0077Z" fill="white"/>
<path fill-rule="evenodd" clip-rule="evenodd" d="M20.0001 10C20.4793 10.0025 20.9431 10.1698 21.3136 10.4738C21.6841 10.7778 21.9387 11.2 22.0348 11.6696C22.812 11.8878 23.5381 12.2224 24.192 12.6561C24.9665 13.1659 24.1969 14.3256 23.4258 13.8116C22.764 13.3692 22.0231 13.0587 21.2436 12.8971C20.8626 12.8265 20.652 12.4635 20.6901 12.0769C20.7289 11.682 20.3957 11.38 20.0001 11.38C19.6045 11.38 19.2741 11.6806 19.3046 12.0901C19.333 12.478 19.1182 12.8244 18.7511 12.8958C15.9156 13.4763 13.7638 15.9966 13.7638 19.0059V22.8307C13.7638 22.9384 13.7387 23.0447 13.6904 23.141L12.4524 25.6211C12.21 26.1068 12.5286 26.6215 13.0725 26.6222H26.925C27.4702 26.6236 27.7909 26.1082 27.5471 25.6211L26.3043 23.141C26.256 23.0447 26.2308 22.9384 26.2308 22.8307V19.0059C26.2311 17.7846 25.8695 16.5906 25.1917 15.5747C24.679 14.8036 25.8373 14.036 26.3472 14.8085C27.1746 16.052 27.6162 17.5123 27.6164 19.0059V22.6672L28.7871 25.0018C29.4647 26.3589 28.4401 28.0098 26.9236 28.0077H23.3905C23.0677 29.5844 21.6655 30.7802 19.9973 30.7802C18.3292 30.7802 16.927 29.5844 16.6042 28.0077H13.0697C11.556 28.0056 10.5369 26.3562 11.2131 25.0011L12.3783 22.6672V19.0059C12.3783 15.5193 14.7462 12.5632 17.9613 11.6654C18.0594 11.1965 18.3153 10.7754 18.6863 10.4723C19.0573 10.1692 19.521 10.0025 20.0001 10ZM21.9495 28.0077H18.0451C18.1854 28.4135 18.4489 28.7654 18.7989 29.0141C19.149 29.2627 19.568 29.3958 19.9973 29.3946C20.4267 29.3958 20.8457 29.2627 21.1957 29.0141C21.5458 28.7654 21.8093 28.4135 21.9495 28.0077Z" fill="black" fill-opacity="0.84"/>
<rect x="20" y="6" width="14" height="14" rx="7" fill="white"/>
<rect x="20" y="6" width="14" height="14" rx="7" fill="#EA6565"/>
<path d="M24.9765 12.054V11.244C25.4445 11.25 25.8405 11.172 26.1645 11.01C26.5245 10.824 26.7405 10.554 26.8125 10.2H27.6495V16.5H26.5245V12.054H24.9765Z" fill="white"/>
</svg>
