<svg width="62" height="62" viewBox="0 0 62 62" fill="none" xmlns="http://www.w3.org/2000/svg">
<g clip-path="url(#clip0_111_2276)">
<path fill-rule="evenodd" clip-rule="evenodd" d="M7.74986 0.203613C3.58701 0.203613 0.208008 3.58704 0.208008 7.75433V54.2455C0.208008 58.4172 3.58701 61.7962 7.75872 61.7962H54.2499C58.4216 61.7962 61.8006 58.4172 61.8006 54.2455V7.75433C61.8006 3.58261 58.4216 0.203613 54.2499 0.203613H7.75429H7.74986Z" fill="url(#paint0_linear_111_2276)"/>
<path d="M7.74986 0.203613C3.58701 0.203613 0.208008 3.58704 0.208008 7.75433V15.4999H61.8006V7.7499C61.8006 3.58704 58.4216 0.203613 54.2499 0.203613H7.75429H7.74986Z" fill="#0D8A6A"/>
<path fill-rule="evenodd" clip-rule="evenodd" d="M27.1247 32.1824C27.1247 31.1547 27.5329 30.1691 28.2596 29.4424C28.9863 28.7157 29.9719 28.3074 30.9997 28.3074C32.0274 28.3074 33.013 28.7157 33.7397 29.4424C34.4664 30.1691 34.8747 31.1547 34.8747 32.1824V34.3967H27.1247V32.1824ZM21.5889 35.371V32.1824C21.5889 29.6866 22.5804 27.2929 24.3453 25.5281C26.1101 23.7632 28.5038 22.7717 30.9997 22.7717C33.4955 22.7717 35.8892 23.7632 37.654 25.5281C39.4189 27.2929 40.4104 29.6866 40.4104 32.1824V35.371C40.9287 35.7852 41.3472 36.3108 41.6346 36.9088C41.9221 37.5068 42.0713 38.1618 42.0711 38.8253V47.6824C42.0711 48.857 41.6045 49.9834 40.774 50.8139C39.9435 51.6444 38.817 52.111 37.6425 52.111H24.3568C23.1823 52.111 22.0558 51.6444 21.2253 50.8139C20.3948 49.9834 19.9282 48.857 19.9282 47.6824V38.8253C19.9282 37.4259 20.5748 36.177 21.5889 35.371Z" fill="#0D8A6A"/>
</g>
<defs>
<linearGradient id="paint0_linear_111_2276" x1="31.0043" y1="0.203613" x2="31.0043" y2="61.7962" gradientUnits="userSpaceOnUse">
<stop stop-color="#0D8A6A"/>
<stop offset="0.0001" stop-color="#B8FDE3"/>
</linearGradient>
<clipPath id="clip0_111_2276">
<rect width="62" height="62" fill="white"/>
</clipPath>
</defs>
</svg>
