<svg width="11" height="14" viewBox="0 0 11 14" fill="none" xmlns="http://www.w3.org/2000/svg">
<path d="M10.6667 4.33301L6.66667 0.333008H1.33333C0.979711 0.333008 0.640573 0.473484 0.390524 0.723532C0.140476 0.97358 0 1.31272 0 1.66634V12.333C0 12.6866 0.140476 13.0258 0.390524 13.2758C0.640573 13.5259 0.979711 13.6663 1.33333 13.6663H9.33333C9.68696 13.6663 10.0261 13.5259 10.2761 13.2758C10.5262 13.0258 10.6667 12.6866 10.6667 12.333V4.33301ZM3.33333 11.6663H2V5.66634H3.33333V11.6663ZM6 11.6663H4.66667V7.66634H6V11.6663ZM8.66667 11.6663H7.33333V9.66634H8.66667V11.6663ZM6.66667 4.99967H6V1.66634L9.33333 4.99967H6.66667Z" fill="white"/>
</svg>
