<svg width="19" height="20" viewBox="0 0 19 20" fill="white" xmlns="http://www.w3.org/2000/svg">
<path d="M18.5 18.5H17V5C17.0074 4.89064 16.978 4.78195 16.9163 4.6913C16.8547 4.60066 16.7644 4.5333 16.66 4.5L13 2.97V18.5H12V1C12 0.867392 11.9473 0.740215 11.8536 0.646447C11.7598 0.552679 11.6326 0.5 11.5 0.5H2.5C2.36739 0.5 2.24021 0.552679 2.14645 0.646447C2.05268 0.740215 2 0.867392 2 1V18.5H0.5C0.367392 18.5 0.240215 18.5527 0.146447 18.6464C0.0526785 18.7402 0 18.8674 0 19C0 19.1326 0.0526785 19.2598 0.146447 19.3536C0.240215 19.4473 0.367392 19.5 0.5 19.5H18.5C18.6326 19.5 18.7598 19.4473 18.8536 19.3536C18.9473 19.2598 19 19.1326 19 19C19 18.8674 18.9473 18.7402 18.8536 18.6464C18.7598 18.5527 18.6326 18.5 18.5 18.5ZM14.5 6.5H15.5C15.6326 6.5 15.7598 6.55268 15.8536 6.64645C15.9473 6.74021 16 6.86739 16 7C15.9974 7.13181 15.9439 7.2575 15.8507 7.35072C15.7575 7.44394 15.6318 7.49744 15.5 7.5H14.5C14.3682 7.49744 14.2425 7.44394 14.1493 7.35072C14.0561 7.2575 14.0026 7.13181 14 7C14 6.86739 14.0527 6.74021 14.1464 6.64645C14.2402 6.55268 14.3674 6.5 14.5 6.5ZM14.5 9.5H15.5C15.6326 9.5 15.7598 9.55268 15.8536 9.64645C15.9473 9.74021 16 9.86739 16 10C16 10.1326 15.9473 10.2598 15.8536 10.3536C15.7598 10.4473 15.6326 10.5 15.5 10.5H14.5C14.3674 10.5 14.2402 10.4473 14.1464 10.3536C14.0527 10.2598 14 10.1326 14 10C14 9.86739 14.0527 9.74021 14.1464 9.64645C14.2402 9.55268 14.3674 9.5 14.5 9.5ZM14.5 12.5H15.5C15.6318 12.5026 15.7575 12.5561 15.8507 12.6493C15.9439 12.7425 15.9974 12.8682 16 13C16 13.1326 15.9473 13.2598 15.8536 13.3536C15.7598 13.4473 15.6326 13.5 15.5 13.5H14.5C14.3674 13.5 14.2402 13.4473 14.1464 13.3536C14.0527 13.2598 14 13.1326 14 13C14.0026 12.8682 14.0561 12.7425 14.1493 12.6493C14.2425 12.5561 14.3682 12.5026 14.5 12.5ZM14.5 15.5H15.5C15.6326 15.5 15.7598 15.5527 15.8536 15.6464C15.9473 15.7402 16 15.8674 16 16C16 16.1326 15.9473 16.2598 15.8536 16.3536C15.7598 16.4473 15.6326 16.5 15.5 16.5H14.5C14.3674 16.5 14.2402 16.4473 14.1464 16.3536C14.0527 16.2598 14 16.1326 14 16C14 15.8674 14.0527 15.7402 14.1464 15.6464C14.2402 15.5527 14.3674 15.5 14.5 15.5ZM8 3.5H9C9.13261 3.5 9.25979 3.55268 9.35355 3.64645C9.44732 3.74021 9.5 3.86739 9.5 4C9.5 4.13261 9.44732 4.25979 9.35355 4.35355C9.25979 4.44732 9.13261 4.5 9 4.5H8C7.86739 4.5 7.74021 4.44732 7.64645 4.35355C7.55268 4.25979 7.5 4.13261 7.5 4C7.5 3.86739 7.55268 3.74021 7.64645 3.64645C7.74021 3.55268 7.86739 3.5 8 3.5ZM8 6.5H9C9.13261 6.5 9.25979 6.55268 9.35355 6.64645C9.44732 6.74021 9.5 6.86739 9.5 7C9.5 7.13261 9.44732 7.25979 9.35355 7.35355C9.25979 7.44732 9.13261 7.5 9 7.5H8C7.86739 7.5 7.74021 7.44732 7.64645 7.35355C7.55268 7.25979 7.5 7.13261 7.5 7C7.5 6.86739 7.55268 6.74021 7.64645 6.64645C7.74021 6.55268 7.86739 6.5 8 6.5ZM8 9.5H9C9.13261 9.5 9.25979 9.55268 9.35355 9.64645C9.44732 9.74021 9.5 9.86739 9.5 10C9.5 10.1326 9.44732 10.2598 9.35355 10.3536C9.25979 10.4473 9.13261 10.5 9 10.5H8C7.86739 10.5 7.74021 10.4473 7.64645 10.3536C7.55268 10.2598 7.5 10.1326 7.5 10C7.5 9.86739 7.55268 9.74021 7.64645 9.64645C7.74021 9.55268 7.86739 9.5 8 9.5ZM8 12.5H9C9.13261 12.5 9.25979 12.5527 9.35355 12.6464C9.44732 12.7402 9.5 12.8674 9.5 13C9.5 13.1326 9.44732 13.2598 9.35355 13.3536C9.25979 13.4473 9.13261 13.5 9 13.5H8C7.86739 13.5 7.74021 13.4473 7.64645 13.3536C7.55268 13.2598 7.5 13.1326 7.5 13C7.5 12.8674 7.55268 12.7402 7.64645 12.6464C7.74021 12.5527 7.86739 12.5 8 12.5ZM4.94 3.5H6C6.13261 3.5 6.25979 3.55268 6.35355 3.64645C6.44732 3.74021 6.5 3.86739 6.5 4C6.5 4.13261 6.44732 4.25979 6.35355 4.35355C6.25979 4.44732 6.13261 4.5 6 4.5H5C4.86739 4.5 4.74021 4.44732 4.64645 4.35355C4.55268 4.25979 4.5 4.13261 4.5 4C4.5 3.86739 4.55268 3.74021 4.64645 3.64645C4.74021 3.55268 4.86739 3.5 5 3.5H4.94ZM4.94 6.5H6C6.13261 6.5 6.25979 6.55268 6.35355 6.64645C6.44732 6.74021 6.5 6.86739 6.5 7C6.5 7.13261 6.44732 7.25979 6.35355 7.35355C6.25979 7.44732 6.13261 7.5 6 7.5H5C4.86739 7.5 4.74021 7.44732 4.64645 7.35355C4.55268 7.25979 4.5 7.13261 4.5 7C4.5 6.86739 4.55268 6.74021 4.64645 6.64645C4.74021 6.55268 4.86739 6.5 5 6.5H4.94ZM4.94 9.5H6C6.13261 9.5 6.25979 9.55268 6.35355 9.64645C6.44732 9.74021 6.5 9.86739 6.5 10C6.5 10.1326 6.44732 10.2598 6.35355 10.3536C6.25979 10.4473 6.13261 10.5 6 10.5H5C4.86739 10.5 4.74021 10.4473 4.64645 10.3536C4.55268 10.2598 4.5 10.1326 4.5 10C4.5 9.86739 4.55268 9.74021 4.64645 9.64645C4.74021 9.55268 4.86739 9.5 5 9.5H4.94ZM4.94 12.5H6C6.13261 12.5 6.25979 12.5527 6.35355 12.6464C6.44732 12.7402 6.5 12.8674 6.5 13C6.5 13.1326 6.44732 13.2598 6.35355 13.3536C6.25979 13.4473 6.13261 13.5 6 13.5H5C4.86739 13.5 4.74021 13.4473 4.64645 13.3536C4.55268 13.2598 4.5 13.1326 4.5 13C4.5 12.8674 4.55268 12.7402 4.64645 12.6464C4.74021 12.5527 4.86739 12.5 5 12.5H4.94ZM7.5 18.5V16.5H6.5V18.5H5.5V15.97C5.50765 15.8427 5.56369 15.7231 5.65664 15.6357C5.7496 15.5483 5.87243 15.4998 6 15.5H8C8.13261 15.5 8.25979 15.5527 8.35355 15.6464C8.44732 15.7402 8.5 15.8674 8.5 16V18.5H7.5Z" fill="#02AB6C"/>
</svg>
