<svg width="18" height="17" viewBox="0 0 18 17" fill="none" xmlns="http://www.w3.org/2000/svg">
<path d="M17.5992 14.8353V3.16664C17.5992 3.06288 17.5468 2.96486 17.4582 2.90325C17.3697 2.84163 17.2557 2.82343 17.1503 2.8544L12.7698 4.14007C12.8112 3.94173 12.8332 3.76837 12.8332 3.62127C12.8332 1.80435 11.268 0.326172 9.34424 0.326172C7.65691 0.326172 6.22543 1.46442 5.92073 3.00062L0.655911 4.36482C0.505483 4.40409 0.401367 4.53307 0.401367 4.68025V16.3454C0.401367 16.4472 0.451736 16.5433 0.537596 16.6053C0.598446 16.6493 0.672475 16.6723 0.747521 16.6723C0.777944 16.6723 0.808707 16.6685 0.838791 16.6608L6.5907 15.175L11.9985 16.6592C12.0303 16.6682 12.0628 16.6723 12.0952 16.6723C12.1297 16.6723 12.1642 16.6675 12.1976 16.6576L12.204 16.6558L17.3555 15.1475C17.5005 15.1051 17.5992 14.9786 17.5992 14.8353ZM6.24711 14.5856L1.09367 15.917V4.9296L5.85667 3.69533C5.87724 4.15325 6.08564 4.78498 6.24711 5.2198V14.5856ZM11.7491 15.9099L6.93942 14.5898V6.84324C7.19286 7.38689 7.54387 8.09671 7.91264 8.79935C8.51739 9.96114 9.03527 10.8586 9.04034 10.8675C9.10119 10.9722 9.21747 11.0377 9.34424 11.0377C9.471 11.0377 9.58729 10.9722 9.64814 10.8675C9.65321 10.8586 10.1711 9.96114 10.7755 8.80031C11.1589 8.06877 11.5235 7.32679 11.7491 6.84293V15.9099ZM10.1545 8.51074C9.84015 9.11479 9.54977 9.64635 9.34424 10.0157C9.13871 9.64604 8.84799 9.11447 8.53328 8.50979C7.97758 7.45086 6.395 4.47346 6.56926 3.29945C6.73592 1.97707 7.92886 0.980018 9.34424 0.980018C10.8864 0.980018 12.1408 2.16479 12.1408 3.62126C12.1408 4.66101 10.6471 7.57183 10.1545 8.51074ZM16.9069 14.5943L12.4414 15.9016V5.22076C12.4843 5.10614 12.5235 4.99408 12.56 4.88649L16.9069 3.61073V14.5943Z" fill="#02AB6C"/>
</svg>
