<svg width="16" height="22" viewBox="0 0 16 22" fill="none" xmlns="http://www.w3.org/2000/svg">
<path d="M14.881 8.02407L14.5453 18.1835C14.5167 19.0536 14.1502 19.8783 13.5235 20.4826C12.8968 21.0869 12.0593 21.4231 11.1887 21.4201H4.81131C3.94131 21.4232 3.1043 21.0874 2.4777 20.4838C1.85111 19.8802 1.4842 19.0564 1.45476 18.1869L1.1191 8.02407C1.11176 7.80152 1.19313 7.58516 1.3453 7.4226C1.49748 7.26004 1.708 7.16459 1.93055 7.15724C2.1531 7.1499 2.36946 7.23126 2.53202 7.38344C2.69458 7.53562 2.79003 7.74614 2.79738 7.96869L3.13303 18.1306C3.14975 18.5645 3.33392 18.9749 3.64686 19.2758C3.95981 19.5767 4.37717 19.7446 4.81131 19.7443H11.1887C11.6234 19.7446 12.0413 19.5762 12.3543 19.2746C12.6674 18.973 12.8512 18.5617 12.867 18.1273L13.2027 7.96869C13.21 7.74614 13.3055 7.53562 13.468 7.38344C13.6306 7.23126 13.847 7.1499 14.0695 7.15724C14.2921 7.16459 14.5026 7.26004 14.6548 7.4226C14.8069 7.58516 14.8883 7.80152 14.881 8.02407ZM15.9911 4.64319C15.9911 4.86574 15.9027 5.07918 15.7454 5.23655C15.588 5.39392 15.3745 5.48233 15.152 5.48233H0.848903C0.62635 5.48233 0.412912 5.39392 0.255543 5.23655C0.0981742 5.07918 0.00976563 4.86574 0.00976563 4.64319C0.00976563 4.42064 0.0981742 4.2072 0.255543 4.04983C0.412912 3.89246 0.62635 3.80405 0.848903 3.80405H3.45023C3.71611 3.80477 3.97274 3.70654 4.17019 3.52848C4.36764 3.35041 4.49178 3.10526 4.51845 2.84072C4.58037 2.22017 4.87111 1.64489 5.334 1.22698C5.7969 0.809074 6.3988 0.578464 7.02243 0.580087L8.97762 0.580087C9.60126 0.578464 10.2032 0.809074 10.6661 1.22698C11.129 1.64489 11.4197 2.22017 11.4816 2.84072C11.5083 3.10526 11.6324 3.35041 11.8299 3.52848C12.0273 3.70654 12.284 3.80477 12.5498 3.80405H15.1512C15.3737 3.80405 15.5871 3.89246 15.7445 4.04983C15.9019 4.2072 15.9903 4.42064 15.9903 4.64319H15.9911ZM5.97519 3.80405H10.0265C9.91628 3.55209 9.84416 3.28512 9.81256 3.01191C9.79178 2.80507 9.69495 2.6133 9.54085 2.47378C9.38675 2.33425 9.18634 2.25689 8.97846 2.25668H7.02327C6.81539 2.25689 6.61498 2.33425 6.46088 2.47378C6.30678 2.6133 6.20996 2.80507 6.18917 3.01191C6.15731 3.28516 6.08575 3.55214 5.97519 3.80405ZM6.8202 16.5178V9.37257C6.8202 9.15001 6.73179 8.93657 6.57442 8.77921C6.41706 8.62184 6.20362 8.53343 5.98106 8.53343C5.75851 8.53343 5.54507 8.62184 5.3877 8.77921C5.23034 8.93657 5.14193 9.15001 5.14193 9.37257V16.5212C5.14193 16.7437 5.23034 16.9572 5.3877 17.1145C5.54507 17.2719 5.75851 17.3603 5.98106 17.3603C6.20362 17.3603 6.41706 17.2719 6.57442 17.1145C6.73179 16.9572 6.8202 16.7437 6.8202 16.5212V16.5178ZM10.8598 16.5178V9.37257C10.8598 9.15001 10.7714 8.93657 10.614 8.77921C10.4567 8.62184 10.2432 8.53343 10.0207 8.53343C9.79812 8.53343 9.58468 8.62184 9.42731 8.77921C9.26994 8.93657 9.18153 9.15001 9.18153 9.37257V16.5212C9.18153 16.7437 9.26994 16.9572 9.42731 17.1145C9.58468 17.2719 9.79812 17.3603 10.0207 17.3603C10.2432 17.3603 10.4567 17.2719 10.614 17.1145C10.7714 16.9572 10.8598 16.7437 10.8598 16.5212V16.5178Z" fill="#FF4848"/>
</svg>
