<svg width="10" height="16" viewBox="0 0 10 16" fill="none" xmlns="http://www.w3.org/2000/svg">
<path fill-rule="evenodd" clip-rule="evenodd" d="M3.12478 0C2.99126 6.28843e-05 2.86127 0.0392142 2.75385 0.111721C2.64643 0.184228 2.56723 0.286279 2.52784 0.402927L0.0277812 7.83196C-0.00105699 7.91743 -0.00755746 8.0079 0.00881216 8.09608C0.0251818 8.18426 0.0639593 8.2677 0.122026 8.33968C0.180092 8.41166 0.255832 8.47018 0.343141 8.51052C0.43045 8.55087 0.526895 8.57191 0.62472 8.57196H2.45094L1.87719 15.386C1.86699 15.5112 1.90213 15.6359 1.97719 15.741C2.05224 15.8461 2.16304 15.9256 2.29247 15.9674C2.42191 16.0092 2.56278 16.0108 2.69335 15.9721C2.82392 15.9334 2.93693 15.8565 3.01492 15.7532L9.89009 6.60979C9.95457 6.52397 9.99219 6.42368 9.99888 6.31974C10.0056 6.21581 9.98108 6.11217 9.92806 6.02003C9.87503 5.92789 9.79548 5.85074 9.698 5.79692C9.60052 5.7431 9.48882 5.71465 9.37494 5.71464H7.26063L9.93404 0.827061C9.98168 0.739927 10.0042 0.643107 9.99937 0.545793C9.99457 0.448479 9.96264 0.3539 9.90663 0.271037C9.85061 0.188174 9.77237 0.119779 9.67931 0.0723421C9.58626 0.0249055 9.48148 3.19346e-06 9.37494 0H3.12478Z" fill="white"/>
</svg>
