<svg width="17" height="17" viewBox="0 0 17 17" fill="none" xmlns="http://www.w3.org/2000/svg">
<g clip-path="url(#clip0_1887_1994)">
<path d="M8.14575 12.0413C9.03117 12.0413 9.78389 11.7313 10.4039 11.1113C11.0239 10.4913 11.3337 9.73879 11.3333 8.85384V5.66634H8.14575C7.26034 5.66634 6.50761 5.97636 5.88759 6.59638C5.26756 7.21641 4.95778 7.9689 4.95825 8.85384C4.95825 9.16079 4.99957 9.45592 5.08221 9.73926C5.16485 10.0226 5.28881 10.2941 5.45409 10.5538L5.17075 10.8372C5.04089 10.967 4.97596 11.1323 4.97596 11.333C4.97596 11.5337 5.04089 11.699 5.17075 11.8288C5.30061 11.9587 5.46589 12.0236 5.66659 12.0236C5.86728 12.0236 6.03256 11.9587 6.16242 11.8288L6.44575 11.5455C6.70547 11.7108 6.977 11.8347 7.26034 11.9174C7.54367 12 7.83881 12.0413 8.14575 12.0413ZM8.14575 10.6247C8.0395 10.6247 7.93325 10.6129 7.827 10.5893C7.72075 10.5656 7.6145 10.5361 7.50825 10.5007L8.99575 8.99551C9.12561 8.86565 9.19054 8.70037 9.19054 8.49967C9.19054 8.29898 9.12561 8.1337 8.99575 8.00384C8.86589 7.87398 8.70061 7.80905 8.49992 7.80905C8.29922 7.80905 8.13395 7.87398 8.00409 8.00384L6.49888 9.49134C6.46346 9.38509 6.43395 9.27884 6.41034 9.17259C6.38672 9.06634 6.37492 8.96009 6.37492 8.85384C6.37492 8.35801 6.5461 7.93891 6.88846 7.59655C7.23082 7.25419 7.64992 7.08301 8.14575 7.08301H9.91659V8.85384C9.91659 9.34968 9.74541 9.76877 9.40304 10.1111C9.06068 10.4535 8.64159 10.6247 8.14575 10.6247ZM8.49992 16.2913L6.05617 14.3788L2.99263 14.007L2.62075 10.9434L0.708252 8.49967L2.62075 6.05592L2.99263 2.99238L6.05617 2.62051L8.49992 0.708008L10.9437 2.62051L14.0072 2.99238L14.3791 6.05592L16.2916 8.49967L14.3791 10.9434L14.0072 14.007L10.9437 14.3788L8.49992 16.2913ZM8.49992 14.4851L10.377 13.033L12.7499 12.732L13.0333 10.3768L14.4853 8.49967L13.0333 6.62259L12.7322 4.26738L10.377 3.96634L8.49992 2.51426L6.62284 3.96634L4.24992 4.26738L3.96659 6.62259L2.5145 8.49967L3.96659 10.3768L4.26763 12.7497L6.62284 13.033L8.49992 14.4851Z" fill="white"/>
</g>
<defs>
<clipPath id="clip0_1887_1994">
<rect width="17" height="17" fill="white"/>
</clipPath>
</defs>
</svg>
