<svg width="20" height="22" viewBox="0 0 20 22" fill="none" xmlns="http://www.w3.org/2000/svg">
    <path d="M3.58984 7.14551H3.08203V8.05645H3.58984C3.73437 8.05645 3.84375 8.01348 3.91797 7.92754C3.99219 7.8416 4.02734 7.73418 4.02734 7.60527C4.02734 7.47637 3.99219 7.36465 3.91797 7.27871C3.84375 7.18848 3.73437 7.14551 3.58984 7.14551Z" fill="black"/>
    <path d="M9.94531 8.08633C9.94531 6.86172 9.10156 5.86914 8.05859 5.86914H1.4375V10.3078H8.05859C9.10156 10.3078 9.94531 9.31094 9.94531 8.08633ZM4.19531 8.18086C4.04688 8.32695 3.84766 8.4 3.58594 8.4H3.07813V9.37539H2.6875V6.79727H3.58594C3.84375 6.79727 4.04688 6.87031 4.19531 7.01641C4.34375 7.1625 4.41406 7.35586 4.41406 7.59648C4.41406 7.84141 4.34375 8.03477 4.19531 8.18086ZM6.66797 8.28398C6.66797 8.60625 6.57422 8.86836 6.39063 9.07031C6.20313 9.27227 5.96094 9.37539 5.66406 9.37539H4.89062V6.79727H5.66406C5.96094 6.79727 6.20313 6.90039 6.39063 7.10234C6.57813 7.30859 6.66797 7.5707 6.66797 7.88867V8.28398ZM7.58594 9.37539H7.19531V6.79727H8.69531V7.14102H7.58594V7.92734H8.53125V8.27109H7.58594V9.37539Z" fill="black"/>
    <path d="M5.66406 7.14551H5.28125V9.03613H5.66406C5.85156 9.03613 6 8.96738 6.11328 8.82559C6.22266 8.68379 6.27734 8.50762 6.27734 8.28848V7.89316C6.27734 7.67402 6.22266 7.49785 6.11328 7.35605C6 7.21426 5.85156 7.14551 5.66406 7.14551Z" fill="black"/>
    <path d="M14.5859 1.52539H17.3477V1.91641H14.5859V1.52539Z" fill="black"/>
    <path d="M17.3438 0.541406C17.3438 0.386719 17.2305 0.257812 17.0859 0.257812H14.8438C14.7031 0.257812 14.5859 0.382422 14.5859 0.541406V1.13437H17.3438V0.541406Z" fill="black"/>
    <path d="M18.5351 4.75195C18.4921 4.65313 18.4023 4.59297 18.3046 4.59297H17.3437V2.30273H14.582V4.59297H13.6249C13.5273 4.59297 13.4374 4.65313 13.3945 4.75195C13.3515 4.85078 13.3632 4.9668 13.4218 5.04844L15.7617 8.35273C15.8085 8.42148 15.8867 8.46016 15.9648 8.46016C16.0429 8.46016 16.121 8.42148 16.1679 8.35273L18.5077 5.04844C18.5663 4.9625 18.5781 4.84648 18.5351 4.75195Z" fill="black"/>
    <path d="M15.332 8.72285L12.9922 5.41855C12.8047 5.15215 12.7695 4.78691 12.9062 4.48613C13.0391 4.18535 13.3242 3.99199 13.6289 3.99199H14.043V1.72754H3.33984C2.28906 1.72754 1.4375 2.66426 1.4375 3.82012V5.27246H8.05859C9.40234 5.27246 10.4922 6.53574 10.4922 8.09121C10.4922 9.64668 9.39844 10.91 8.05859 10.91H1.4375V19.6498C1.4375 20.8057 2.28906 21.7424 3.33984 21.7424H14.0625C15.1133 21.7424 15.9648 20.8057 15.9648 19.6498V9.0666C15.7148 9.0666 15.4844 8.94199 15.332 8.72285Z" fill="#02AB6C"/>
    </svg>
    