<svg width="13" height="14" viewBox="0 0 13 14" fill="none" xmlns="http://www.w3.org/2000/svg">
<path d="M0.866738 1.73924e-06C0.752847 -0.000209639 0.640029 0.0188485 0.534761 0.056082C0.429492 0.0933155 0.333846 0.147991 0.253313 0.21697C0.17278 0.285949 0.108946 0.367873 0.0654757 0.458039C0.0220056 0.548205 -0.000244754 0.644837 2.03056e-06 0.742388V12.6195C2.03056e-06 12.9908 0.433266 13.3619 0.866738 13.3619H8.66674C9.1 13.3619 9.53327 12.9908 9.53327 12.6195V8.90792H9.96674C10.4 8.90792 10.4 9.27903 10.4 9.27903V10.7638C10.4 11.506 10.8333 11.8773 11.7 11.8773C12.5667 11.8773 13 11.506 13 10.7638V6.68094C13 5.93856 11.2667 5.19635 11.2667 4.45396V2.22698H10.4L9.53327 1.4846V0.742388C9.53351 0.644852 9.51127 0.548235 9.46781 0.45808C9.42435 0.367926 9.36054 0.28601 9.28003 0.217033C9.19952 0.148057 9.10389 0.0933773 8.99865 0.0561333C8.8934 0.0188893 8.78061 -0.000186149 8.66674 1.73924e-06H0.866738ZM1.73327 1.4846H7.8V4.45396H1.73327V1.4846ZM9.53327 3.71158H10.4V4.82507C10.4 5.56745 12.1333 6.30984 12.1333 7.05205V10.7638C12.1333 11.1349 11.7 11.1349 11.7 11.1349C11.7 11.1349 11.2667 11.1349 11.2667 10.7638V8.90792C11.2667 8.53682 10.8333 8.16554 10.4 8.16554H9.53327V3.71158Z" fill="white"/>
</svg>
