<svg width="32" height="32" viewBox="0 0 32 32" fill="none" xmlns="http://www.w3.org/2000/svg">
    <path d="M20.5 22H11.5C11.1022 22 10.7206 21.842 10.4393 21.5607C10.158 21.2794 10 20.8978 10 20.5V14.5C10 14.3674 10.0527 14.2402 10.1464 14.1464C10.2402 14.0527 10.3674 14 10.5 14H21.5C21.6326 14 21.7598 14.0527 21.8536 14.1464C21.9473 14.2402 22 14.3674 22 14.5V20.5C22 20.8978 21.842 21.2794 21.5607 21.5607C21.2794 21.842 20.8978 22 20.5 22ZM11 15V20.5C11 20.6326 11.0527 20.7598 11.1464 20.8536C11.2402 20.9473 11.3674 21 11.5 21H20.5C20.6326 21 20.7598 20.9473 20.8536 20.8536C20.9473 20.7598 21 20.6326 21 20.5V15H11Z" fill="#02AB6C"/>
    <path d="M22.5 15H9.5C9.36739 15 9.24021 14.9473 9.14645 14.8536C9.05268 14.7598 9 14.6326 9 14.5V13.415C9.00035 13.0173 9.15862 12.636 9.44 12.355L11.355 10.44C11.636 10.1586 12.0173 10.0004 12.415 10H19.585C19.9827 10.0004 20.364 10.1586 20.645 10.44L22.56 12.355C22.8414 12.636 22.9997 13.0173 23 13.415V14.5C23 14.6326 22.9473 14.7598 22.8536 14.8536C22.7598 14.9473 22.6326 15 22.5 15ZM10 14H22V13.415C21.9994 13.2826 21.9464 13.1558 21.8525 13.0625L19.9375 11.1475C19.8442 11.0536 19.7174 11.0006 19.585 11H12.415C12.2826 11.0006 12.1558 11.0536 12.0625 11.1475L10.1475 13.06C10.1007 13.1065 10.0636 13.1618 10.0383 13.2228C10.013 13.2837 9.99995 13.349 10 13.415V14ZM17.5 17H14.5C14.3674 17 14.2402 16.9473 14.1464 16.8536C14.0527 16.7598 14 16.6326 14 16.5C14 16.3674 14.0527 16.2402 14.1464 16.1464C14.2402 16.0527 14.3674 16 14.5 16H17.5C17.6326 16 17.7598 16.0527 17.8536 16.1464C17.9473 16.2402 18 16.3674 18 16.5C18 16.6326 17.9473 16.7598 17.8536 16.8536C17.7598 16.9473 17.6326 17 17.5 17Z" fill="#02AB6C"/>
    </svg>
    