<svg width="20" height="19" viewBox="0 0 20 19" fill="none" xmlns="http://www.w3.org/2000/svg">
<path d="M5.84375 11.8125C5.93492 11.8125 6.02235 11.7779 6.08682 11.7164C6.15128 11.6549 6.1875 11.5714 6.1875 11.4844V8.85938C6.1875 8.77235 6.15128 8.68889 6.08682 8.62736C6.02235 8.56582 5.93492 8.53125 5.84375 8.53125C5.75258 8.53125 5.66515 8.56582 5.60068 8.62736C5.53622 8.68889 5.5 8.77235 5.5 8.85938V11.4844C5.5 11.5714 5.53622 11.6549 5.60068 11.7164C5.66515 11.7779 5.75258 11.8125 5.84375 11.8125ZM5.84375 15.75C5.93492 15.75 6.02235 15.7154 6.08682 15.6539C6.15128 15.5924 6.1875 15.5089 6.1875 15.4219V12.7969C6.1875 12.7099 6.15128 12.6264 6.08682 12.5649C6.02235 12.5033 5.93492 12.4688 5.84375 12.4688C5.75258 12.4688 5.66515 12.5033 5.60068 12.5649C5.53622 12.6264 5.5 12.7099 5.5 12.7969V15.4219C5.5 15.5089 5.53622 15.5924 5.60068 15.6539C5.66515 15.7154 5.75258 15.75 5.84375 15.75ZM6.53125 8.53125H9.28125C9.37242 8.53125 9.45985 8.49668 9.52432 8.43514C9.58878 8.37361 9.625 8.29015 9.625 8.20312C9.625 8.1161 9.58878 8.03264 9.52432 7.97111C9.45985 7.90957 9.37242 7.875 9.28125 7.875H6.53125C6.44008 7.875 6.35265 7.90957 6.28818 7.97111C6.22372 8.03264 6.1875 8.1161 6.1875 8.20312C6.1875 8.29015 6.22372 8.37361 6.28818 8.43514C6.35265 8.49668 6.44008 8.53125 6.53125 8.53125ZM12.7188 15.75C12.8099 15.75 12.8974 15.7154 12.9618 15.6539C13.0263 15.5924 13.0625 15.5089 13.0625 15.4219V12.7969C13.0625 12.7099 13.0263 12.6264 12.9618 12.5649C12.8974 12.5033 12.8099 12.4688 12.7188 12.4688C12.6276 12.4688 12.5401 12.5033 12.4757 12.5649C12.4112 12.6264 12.375 12.7099 12.375 12.7969V15.4219C12.375 15.5089 12.4112 15.5924 12.4757 15.6539C12.5401 15.7154 12.6276 15.75 12.7188 15.75ZM9.625 11.4844C9.625 11.5714 9.66122 11.6549 9.72568 11.7164C9.79015 11.7779 9.87758 11.8125 9.96875 11.8125C10.0599 11.8125 10.1474 11.7779 10.2118 11.7164C10.2763 11.6549 10.3125 11.5714 10.3125 11.4844V8.85938C10.3125 8.77235 10.2763 8.68889 10.2118 8.62736C10.1474 8.56582 10.0599 8.53125 9.96875 8.53125C9.87758 8.53125 9.79015 8.56582 9.72568 8.62736C9.66122 8.68889 9.625 8.77235 9.625 8.85938V11.4844ZM12.7188 11.8125C12.8099 11.8125 12.8974 11.7779 12.9618 11.7164C13.0263 11.6549 13.0625 11.5714 13.0625 11.4844V8.85938C13.0625 8.77235 13.0263 8.68889 12.9618 8.62736C12.8974 8.56582 12.8099 8.53125 12.7188 8.53125C12.6276 8.53125 12.5401 8.56582 12.4757 8.62736C12.4112 8.68889 12.375 8.77235 12.375 8.85938V11.4844C12.375 11.5714 12.4112 11.6549 12.4757 11.7164C12.5401 11.7779 12.6276 11.8125 12.7188 11.8125ZM9.28125 15.75H6.53125C6.44008 15.75 6.35265 15.7846 6.28818 15.8461C6.22372 15.9076 6.1875 15.9911 6.1875 16.0781C6.1875 16.1651 6.22372 16.2486 6.28818 16.3101C6.35265 16.3717 6.44008 16.4062 6.53125 16.4062H9.28125C9.37242 16.4062 9.45985 16.3717 9.52432 16.3101C9.58878 16.2486 9.625 16.1651 9.625 16.0781C9.625 15.9911 9.58878 15.9076 9.52432 15.8461C9.45985 15.7846 9.37242 15.75 9.28125 15.75ZM9.96875 12.4688C9.87758 12.4688 9.79015 12.5033 9.72568 12.5649C9.66122 12.6264 9.625 12.7099 9.625 12.7969V15.4219C9.625 15.5089 9.66122 15.5924 9.72568 15.6539C9.79015 15.7154 9.87758 15.75 9.96875 15.75C10.0599 15.75 10.1474 15.7154 10.2118 15.6539C10.2763 15.5924 10.3125 15.5089 10.3125 15.4219V12.7969C10.3125 12.7099 10.2763 12.6264 10.2118 12.5649C10.1474 12.5033 10.0599 12.4688 9.96875 12.4688ZM17.5312 1.96875H15.8125V1.3125C15.8125 0.588656 15.1958 0 14.4375 0C13.6792 0 13.0625 0.588656 13.0625 1.3125V1.96875H6.1875V1.3125C6.1875 0.588656 5.57081 0 4.8125 0C4.05419 0 3.4375 0.588656 3.4375 1.3125V1.96875H1.71875C1.26302 1.9691 0.826062 2.14206 0.503812 2.44966C0.181563 2.75726 0.000364146 3.17436 0 3.60938V16.7344C0 17.6393 0.770688 18.375 1.71875 18.375H17.5312C18.4793 18.375 19.25 17.6393 19.25 16.7344V3.60938C19.25 2.70441 18.4793 1.96875 17.5312 1.96875ZM13.75 1.3125C13.75 1.13845 13.8224 0.971532 13.9514 0.848461C14.0803 0.72539 14.2552 0.65625 14.4375 0.65625C14.6198 0.65625 14.7947 0.72539 14.9236 0.848461C15.0526 0.971532 15.125 1.13845 15.125 1.3125V3.28125C15.125 3.4553 15.0526 3.62222 14.9236 3.74529C14.7947 3.86836 14.6198 3.9375 14.4375 3.9375C14.2552 3.9375 14.0803 3.86836 13.9514 3.74529C13.8224 3.62222 13.75 3.4553 13.75 3.28125V1.3125ZM4.125 1.3125C4.125 1.13845 4.19743 0.971532 4.32636 0.848461C4.4553 0.72539 4.63016 0.65625 4.8125 0.65625C4.99484 0.65625 5.1697 0.72539 5.29864 0.848461C5.42757 0.971532 5.5 1.13845 5.5 1.3125V3.28125C5.5 3.4553 5.42757 3.62222 5.29864 3.74529C5.1697 3.86836 4.99484 3.9375 4.8125 3.9375C4.63016 3.9375 4.4553 3.86836 4.32636 3.74529C4.19743 3.62222 4.125 3.4553 4.125 3.28125V1.3125ZM18.5625 16.7344C18.5625 17.2771 18.0998 17.7188 17.5312 17.7188H1.71875C1.15019 17.7188 0.6875 17.2771 0.6875 16.7344V6.5625H18.5625V16.7344ZM18.5625 5.90625H0.6875V3.60938C0.6875 3.06666 1.15019 2.625 1.71875 2.625H3.4375V3.28125C3.4375 4.00509 4.05419 4.59375 4.8125 4.59375C5.57081 4.59375 6.1875 4.00509 6.1875 3.28125V2.625H13.0625V3.28125C13.0625 4.00509 13.6792 4.59375 14.4375 4.59375C15.1958 4.59375 15.8125 4.00509 15.8125 3.28125V2.625H17.5312C18.0998 2.625 18.5625 3.06666 18.5625 3.60938V5.90625Z" fill="#02AB6C"/>
</svg>
