<svg width="10" height="11" viewBox="0 0 10 11" fill="none" xmlns="http://www.w3.org/2000/svg">
<path d="M5 6.05C4.80972 6.04804 4.62332 6.09743 4.4659 6.19152C4.30848 6.2856 4.18759 6.41987 4.11951 6.57624C4.05142 6.73262 4.03941 6.90359 4.08509 7.06616C4.13077 7.22872 4.23195 7.37507 4.375 7.4855V8.25C4.375 8.39587 4.44085 8.53576 4.55806 8.63891C4.67527 8.74205 4.83424 8.8 5 8.8C5.16576 8.8 5.32473 8.74205 5.44194 8.63891C5.55915 8.53576 5.625 8.39587 5.625 8.25V7.4855C5.76805 7.37507 5.86923 7.22872 5.91491 7.06616C5.96059 6.90359 5.94858 6.73262 5.88049 6.57624C5.81241 6.41987 5.69152 6.2856 5.5341 6.19152C5.37668 6.09743 5.19028 6.04804 5 6.05ZM8.125 3.85V2.75C8.125 2.02065 7.79576 1.32118 7.20971 0.805456C6.62366 0.289731 5.8288 0 5 0C4.1712 0 3.37634 0.289731 2.79029 0.805456C2.20424 1.32118 1.875 2.02065 1.875 2.75V3.85C1.37772 3.85 0.900806 4.02384 0.549175 4.33327C0.197544 4.64271 0 5.06239 0 5.5V9.35C0 9.78761 0.197544 10.2073 0.549175 10.5167C0.900806 10.8262 1.37772 11 1.875 11H8.125C8.62228 11 9.09919 10.8262 9.45083 10.5167C9.80246 10.2073 10 9.78761 10 9.35V5.5C10 5.06239 9.80246 4.64271 9.45083 4.33327C9.09919 4.02384 8.62228 3.85 8.125 3.85ZM3.125 2.75C3.125 2.31239 3.32254 1.89271 3.67417 1.58327C4.02581 1.27384 4.50272 1.1 5 1.1C5.49728 1.1 5.97419 1.27384 6.32583 1.58327C6.67746 1.89271 6.875 2.31239 6.875 2.75V3.85H3.125V2.75ZM8.75 9.35C8.75 9.49587 8.68415 9.63576 8.56694 9.73891C8.44973 9.84205 8.29076 9.9 8.125 9.9H1.875C1.70924 9.9 1.55027 9.84205 1.43306 9.73891C1.31585 9.63576 1.25 9.49587 1.25 9.35V5.5C1.25 5.35413 1.31585 5.21424 1.43306 5.11109C1.55027 5.00795 1.70924 4.95 1.875 4.95H8.125C8.29076 4.95 8.44973 5.00795 8.56694 5.11109C8.68415 5.21424 8.75 5.35413 8.75 5.5V9.35Z" fill="white"/>
</svg>
