<svg width="148" height="37" viewBox="0 0 148 37" fill="none" xmlns="http://www.w3.org/2000/svg">
<path d="M2.324 29.5V5.82H6.516V29.5H2.324ZM17.6878 30.044C12.7918 30.044 9.62375 26.62 9.62375 21.308C9.62375 16.028 12.7918 12.636 17.6878 12.636C22.5838 12.636 25.7518 16.028 25.7518 21.308C25.7518 26.62 22.5838 30.044 17.6878 30.044ZM17.6878 26.46C20.0558 26.46 21.5918 24.476 21.5918 21.308C21.5918 18.172 20.0558 16.22 17.6878 16.22C15.2878 16.22 13.7838 18.172 13.7838 21.308C13.7838 24.476 15.2878 26.46 17.6878 26.46ZM38.04 12.732C41.08 12.732 42.936 14.684 42.936 18.012V29.5H38.776V18.812C38.776 17.148 37.848 16.156 36.344 16.156C34.328 16.156 33.016 17.564 33.016 19.804V29.5H28.824V13.18H32.344L32.888 15.644H32.92C33.944 13.788 35.768 12.732 38.04 12.732ZM52.8802 36.764C49.5843 36.764 46.5123 35.452 45.0083 33.468L47.0883 30.588C48.3363 32.188 50.4163 33.244 52.4963 33.244C55.5363 33.244 57.4563 31.356 57.4563 28.38V26.684H57.4243C56.4643 28.444 54.5443 29.692 52.5283 29.692C48.5603 29.692 45.9683 26.396 45.9683 21.308C45.9683 16.06 48.5603 12.7 52.4643 12.7C54.6083 12.7 56.5603 13.852 57.4563 15.676H57.4883L57.9683 13.18H61.6163L61.6483 28.444C61.6483 33.596 58.2563 36.764 52.8802 36.764ZM53.8723 26.204C56.1123 26.204 57.6163 24.188 57.6163 21.244C57.6163 18.268 56.1123 16.22 53.8723 16.22C51.6323 16.22 50.1603 18.204 50.1603 21.244C50.1603 24.252 51.6323 26.204 53.8723 26.204ZM71.8528 30.012C67.7888 30.012 64.6528 27.996 64.5247 24.284L68.3008 23.676C68.3968 25.788 69.9008 26.972 71.9808 26.972C73.6768 26.972 74.9568 26.236 74.9568 25.084C74.9248 24.092 74.0608 23.516 72.0448 23.004L69.7088 22.396C66.6048 21.596 65.2608 20.188 65.2928 17.756C65.2928 14.652 67.8528 12.636 71.4688 12.636C74.8928 12.636 77.6128 14.46 77.8688 17.628L74.1248 18.236C74.0288 16.54 72.9088 15.644 71.3408 15.644C69.9648 15.644 69.0368 16.412 69.0368 17.404C69.0048 18.332 69.8048 18.908 71.6608 19.452L73.9968 20.06C77.3568 20.956 78.8608 22.364 78.8608 24.732C78.8608 27.932 75.9168 30.012 71.8528 30.012ZM84.0023 10.652C82.4663 10.652 81.4103 9.628 81.4103 8.092C81.4103 6.588 82.4663 5.564 84.0023 5.564C85.5703 5.564 86.6263 6.588 86.6263 8.092C86.6263 9.628 85.5703 10.652 84.0023 10.652ZM81.8903 29.5V13.18H86.0823V29.5H81.8903ZM96.349 36.764C93.053 36.764 89.981 35.452 88.477 33.468L90.557 30.588C91.805 32.188 93.885 33.244 95.965 33.244C99.005 33.244 100.925 31.356 100.925 28.38V26.684H100.893C99.933 28.444 98.013 29.692 95.997 29.692C92.029 29.692 89.437 26.396 89.437 21.308C89.437 16.06 92.029 12.7 95.933 12.7C98.077 12.7 100.029 13.852 100.925 15.676H100.957L101.437 13.18H105.085L105.117 28.444C105.117 33.596 101.725 36.764 96.349 36.764ZM97.341 26.204C99.581 26.204 101.085 24.188 101.085 21.244C101.085 18.268 99.581 16.22 97.341 16.22C95.101 16.22 93.629 18.204 93.629 21.244C93.629 24.252 95.101 26.204 97.341 26.204ZM108.762 29.5V5.82H112.954V15.644H112.986C114.01 13.788 115.77 12.732 118.042 12.732C121.082 12.732 122.874 14.652 122.874 18.012V29.5H118.714V18.812C118.714 17.148 117.786 16.156 116.282 16.156C114.266 16.156 112.954 17.532 112.954 19.804V29.5H108.762ZM132.892 30.012C129.5 30.012 127.516 27.996 127.516 24.796V16.38H124.7V13.18H127.516V8.764L131.676 7.836V13.18H137.212V16.38H131.676V24.06C131.676 25.628 132.412 26.556 133.66 26.556C134.844 26.556 135.74 25.852 136.124 24.124L138.14 26.332C137.5 28.668 135.516 30.012 132.892 30.012Z" fill="white"/>
<circle cx="84" cy="8.5" r="3.5" fill="#02AB6C"/>
</svg>
