<svg width="62" height="62" viewBox="0 0 62 62" fill="none" xmlns="http://www.w3.org/2000/svg">
<g clip-path="url(#clip0_111_2317)">
<path fill-rule="evenodd" clip-rule="evenodd" d="M15.0305 18.4717H9.23789C5.23003 18.4717 1.98389 21.7223 1.98389 25.7257V54.7461C1.98389 58.754 5.23003 62.0001 9.23789 62.0001H52.7619C56.7697 62.0001 60.0203 58.754 60.0203 54.7461V25.7257C60.0203 21.7223 56.7697 18.4717 52.7619 18.4717H46.9693C46.615 19.7294 45.9507 20.9074 44.9853 21.8684L36.4825 30.3712C35.7628 31.091 34.9084 31.6619 33.9681 32.0514C33.0278 32.441 32.0199 32.6415 31.0021 32.6415C29.9843 32.6415 28.9764 32.441 28.0361 32.0514C27.0958 31.6619 26.2414 31.091 25.5217 30.3712L17.0145 21.8684C16.0717 20.9259 15.3883 19.7559 15.0305 18.4717Z" fill="#BBF1E3"/>
<path fill-rule="evenodd" clip-rule="evenodd" d="M34.3213 3.50746C34.3213 2.62657 33.9714 1.78175 33.3485 1.15886C32.7256 0.53597 31.8808 0.186035 30.9999 0.186035C30.119 0.186035 29.2742 0.53597 28.6513 1.15886C28.0284 1.78175 27.6785 2.62657 27.6785 3.50746V14.1715H22.4971C22.0585 14.1707 21.6297 14.3001 21.2648 14.5434C20.8999 14.7866 20.6155 15.1327 20.4476 15.5378C20.2797 15.9429 20.2358 16.3888 20.3216 16.8188C20.4073 17.2489 20.6189 17.6438 20.9293 17.9535L29.4322 26.4563C29.6379 26.6625 29.8822 26.8261 30.1513 26.9378C30.4203 27.0494 30.7087 27.1069 30.9999 27.1069C31.2912 27.1069 31.5796 27.0494 31.8486 26.9378C32.1176 26.8261 32.3619 26.6625 32.5676 26.4563L41.0705 17.9535C41.3807 17.644 41.5921 17.2495 41.678 16.8199C41.7639 16.3903 41.7205 15.9448 41.5531 15.5399C41.3857 15.135 41.102 14.7888 40.7378 14.5452C40.3736 14.3016 39.9453 14.1716 39.5072 14.1715H34.3213V3.50746Z" fill="#0D8A6A"/>
<path fill-rule="evenodd" clip-rule="evenodd" d="M60.0203 26.3721L30.9999 43.2804L1.98389 26.3721V32.7802L29.6049 48.8781C30.0283 49.1251 30.5097 49.2553 30.9999 49.2553C31.4901 49.2553 31.9715 49.1251 32.3949 48.8781L60.0159 32.7802V26.3721H60.0203Z" fill="#0D8A6A"/>
</g>
<defs>
<clipPath id="clip0_111_2317">
<rect width="62" height="62" fill="white"/>
</clipPath>
</defs>
</svg>
