<svg width="28" height="28" viewBox="0 0 28 28" fill="none" xmlns="http://www.w3.org/2000/svg">
<path d="M3.86482 20C3.52394 20 3.19703 19.8736 2.95599 19.6486C2.71495 19.4236 2.57954 19.1184 2.57954 18.8002V11.1431L1.86877 11.4743C1.71763 11.5461 1.55274 11.5894 1.38361 11.6015C1.21447 11.6136 1.04445 11.5944 0.883326 11.5448C0.722206 11.4953 0.57318 11.4165 0.444841 11.313C0.316502 11.2094 0.21139 11.0832 0.135563 10.9415C0.0597364 10.7999 0.014696 10.6456 0.00303871 10.4877C-0.00861858 10.3297 0.0133378 10.1711 0.067642 10.0211C0.121946 9.87111 0.207524 9.73262 0.319441 9.61363C0.431358 9.49464 0.567401 9.3975 0.719725 9.32782L3.2903 8.12803C3.48622 8.0359 3.70418 7.99221 3.92335 8.00114C4.14253 8.01007 4.35558 8.07133 4.54215 8.17905C4.72873 8.28678 4.88259 8.43737 4.98903 8.61644C5.09547 8.7955 5.15093 8.99706 5.15011 9.20185V18.8002C5.15011 19.1184 5.0147 19.4236 4.77366 19.6486C4.53262 19.8736 4.2057 20 3.86482 20ZM15.4324 20H9.00597C8.75235 19.9988 8.50475 19.9278 8.29423 19.7957C8.0837 19.6637 7.91963 19.4766 7.82258 19.2578C7.72552 19.0391 7.69982 18.7985 7.74869 18.5662C7.79756 18.3339 7.91883 18.1202 8.09728 17.952L13.2384 13.1528C13.5649 12.848 13.7448 12.4437 13.7448 12.013C13.7448 11.5834 13.5649 11.1791 13.2384 10.8744C12.5855 10.2649 11.4519 10.2649 10.7964 10.8756C10.6357 11.0245 10.5083 11.2017 10.4216 11.397C10.3349 11.5922 10.2906 11.8016 10.2913 12.013C10.2913 12.3312 10.1558 12.6363 9.91481 12.8613C9.67377 13.0864 9.34685 13.2128 9.00597 13.2128C8.6651 13.2128 8.33818 13.0864 8.09714 12.8613C7.8561 12.6363 7.72069 12.3312 7.72069 12.013C7.72069 10.9404 8.16797 9.93372 8.98027 9.17665C10.6062 7.66131 13.4325 7.66131 15.0558 9.17785C15.8681 9.93492 16.3141 10.9427 16.3141 12.013C16.3141 13.0844 15.8668 14.0922 15.0558 14.8493L12.1087 17.6004H15.4324C15.7733 17.6004 16.1002 17.7268 16.3412 17.9518C16.5823 18.1768 16.7177 18.482 16.7177 18.8002C16.7177 19.1184 16.5823 19.4236 16.3412 19.6486C16.1002 19.8736 15.7733 20 15.4324 20ZM25.6569 13.2536C26.1095 12.6903 26.3551 12.0056 26.3574 11.3015C26.3563 10.4267 25.9836 9.58804 25.321 8.96949C24.6584 8.35093 23.7599 8.00301 22.8228 8.00205C22.1752 8.00085 21.5398 8.16643 20.9865 8.48056C20.4332 8.7947 19.9834 9.24521 19.6867 9.78255C19.6091 9.92246 19.5617 10.0753 19.5473 10.2323C19.533 10.3893 19.5519 10.5474 19.6029 10.6976C19.654 10.8477 19.7363 10.9871 19.8451 11.1076C19.9538 11.2281 20.0869 11.3274 20.2368 11.3999C20.3867 11.4723 20.5504 11.5166 20.7186 11.53C20.8868 11.5434 21.0561 11.5258 21.217 11.4781C21.3779 11.4304 21.5272 11.3536 21.6563 11.2521C21.7853 11.1505 21.8917 11.0263 21.9694 10.8864C22.0483 10.7447 22.1662 10.6251 22.311 10.54C22.4558 10.4549 22.6222 10.4073 22.7932 10.4021C22.9642 10.3969 23.1336 10.4343 23.284 10.5104C23.4344 10.5865 23.5604 10.6986 23.6491 10.8352C23.7378 10.9718 23.7859 11.128 23.7885 11.2877C23.7911 11.4474 23.7482 11.6048 23.664 11.7439C23.5799 11.883 23.4577 11.9987 23.3098 12.079C23.162 12.1594 22.9939 12.2016 22.8228 12.2013C22.4819 12.2013 22.155 12.3277 21.914 12.5527C21.6729 12.7778 21.5375 13.0829 21.5375 13.4011C21.5375 13.7193 21.6729 14.0245 21.914 14.2495C22.155 14.4745 22.4819 14.6009 22.8228 14.6009C23.7084 14.6009 24.4294 15.274 24.4294 16.1007C24.4294 16.9273 23.7084 17.6004 22.8228 17.6004C21.9373 17.6004 21.2162 16.9273 21.2162 16.1007C21.2162 15.7825 21.0808 15.4773 20.8398 15.2523C20.5987 15.0273 20.2718 14.9009 19.9309 14.9009C19.59 14.9009 19.2631 15.0273 19.0221 15.2523C18.781 15.4773 18.6456 15.7825 18.6456 16.1007C18.6456 18.2507 20.5196 20 22.8228 20C25.1261 20 27 18.2507 27 16.1007C26.999 15.5652 26.8791 15.0358 26.6479 14.5458C26.4167 14.0558 26.0793 13.6158 25.6569 13.2536Z" fill="#02AB6C"/>
</svg>
