<svg width="28" height="28" viewBox="0 0 28 28" fill="none" xmlns="http://www.w3.org/2000/svg">
<path d="M18.375 2.33398C19.8247 2.33398 21 3.50924 21 4.95898V23.0423C21 24.492 19.8247 25.6673 18.375 25.6673H9.625C8.17525 25.6673 7 24.492 7 23.0423V4.95898C7 3.50924 8.17525 2.33398 9.625 2.33398H18.375ZM15.4583 21.0007H12.5417C12.0584 21.0007 11.6667 21.3924 11.6667 21.8757C11.6667 22.3589 12.0584 22.7507 12.5417 22.7507H15.4583C15.9416 22.7507 16.3333 22.3589 16.3333 21.8757C16.3333 21.3924 15.9416 21.0007 15.4583 21.0007Z" fill="#02AB6C"/>
</svg>
