<svg width="32" height="32" viewBox="0 0 32 32" fill="none" xmlns="http://www.w3.org/2000/svg">
<g clip-path="url(#clip0_1887_1925)">
<path d="M8 13.1999H24V14.1599H23.3299L22.5222 21.25C22.4449 21.8258 22.1616 22.354 21.7248 22.737C21.2879 23.12 20.7272 23.3318 20.1462 23.3332H11.8538C11.2728 23.3318 10.7121 23.12 10.2753 22.737C9.83855 22.354 9.55527 21.8258 9.47792 21.25L8.6704 14.1598H8V13.1999ZM10.4298 21.1244C10.4761 21.4695 10.6459 21.7862 10.9077 22.0158C11.1695 22.2453 11.5056 22.3723 11.8538 22.3732H20.1462C20.4945 22.3724 20.8306 22.2454 21.0924 22.0158C21.3542 21.7862 21.5239 21.4695 21.5702 21.1244L22.3614 14.1598H9.63856L10.4298 21.1244ZM20.1392 9.62602H11.8608L11.232 12.5604H10.2496L11.0848 8.66602H20.9152L21.7504 12.5604H20.768L20.1392 9.62602Z" fill="#02AB6C"/>
<path d="M15.477 20.0858L13.5632 18.1719L14.242 17.4932L15.477 18.7282L17.7581 16.4473L18.4368 17.126L15.477 20.0858Z" fill="#02AB6C"/>
</g>
<defs>
<clipPath id="clip0_1887_1925">
<rect width="16" height="16" fill="white" transform="translate(8 8)"/>
</clipPath>
</defs>
</svg>
