<svg width="22" height="17" viewBox="0 0 22 17" fill="none" xmlns="http://www.w3.org/2000/svg">
<path d="M11.1719 0C17.0088 0 21.7402 3.80545 21.7402 8.5C21.7402 13.1946 17.0088 17 11.1719 17C5.33496 17 0.603516 13.1946 0.603516 8.5C0.603516 3.80545 5.33496 0 11.1719 0ZM11.1719 1.7C8.92954 1.7 6.77906 2.41643 5.1935 3.69167C3.60794 4.96692 2.71718 6.69653 2.71718 8.5C2.71718 10.3035 3.60794 12.0331 5.1935 13.3083C6.77906 14.5836 8.92954 15.3 11.1719 15.3C13.4142 15.3 15.5647 14.5836 17.1502 13.3083C18.7358 12.0331 19.6265 10.3035 19.6265 8.5C19.6265 6.69653 18.7358 4.96692 17.1502 3.69167C15.5647 2.41643 13.4142 1.7 11.1719 1.7ZM11.1613 6.8C11.751 6.8 12.2287 7.1842 12.2287 7.6585V12.0139C12.4302 12.1075 12.5876 12.2519 12.6766 12.4247C12.7657 12.5976 12.7813 12.7893 12.7211 12.97C12.6608 13.1507 12.5282 13.3104 12.3436 13.4243C12.159 13.5382 11.9329 13.6 11.7003 13.6H11.1824C11.0423 13.6 10.9035 13.5778 10.774 13.5347C10.6444 13.4915 10.5268 13.4283 10.4277 13.3486C10.3285 13.2688 10.2499 13.1742 10.1963 13.07C10.1426 12.9659 10.115 12.8542 10.115 12.7415V8.5C9.83474 8.5 9.56593 8.41045 9.36773 8.25104C9.16954 8.09163 9.05819 7.87543 9.05819 7.65C9.05819 7.42457 9.16954 7.20837 9.36773 7.04896C9.56593 6.88955 9.83474 6.8 10.115 6.8H11.1613ZM11.1719 4.25C11.4522 4.25 11.721 4.33955 11.9192 4.49896C12.1174 4.65837 12.2287 4.87457 12.2287 5.1C12.2287 5.32543 12.1174 5.54164 11.9192 5.70104C11.721 5.86045 11.4522 5.95 11.1719 5.95C10.8916 5.95 10.6228 5.86045 10.4246 5.70104C10.2264 5.54164 10.115 5.32543 10.115 5.1C10.115 4.87457 10.2264 4.65837 10.4246 4.49896C10.6228 4.33955 10.8916 4.25 11.1719 4.25Z" fill="black" fill-opacity="0.8"/>
</svg>
