<svg width="20" height="20" viewBox="0 0 20 20" fill="none" xmlns="http://www.w3.org/2000/svg">
<rect x="0.5" y="0.5" width="19" height="19" rx="9.5" stroke="#02AB6C"/>
<path d="M4.60645 14.8788C4.72766 14.2727 4.84887 13.7879 4.90948 13.5454C5.39432 13.303 6.12159 13 6.78826 12.7576C7.09129 13.0606 8.1822 14.0909 9.69735 14.1515H9.81856C10.9095 14.1515 11.9398 13.6667 12.9095 12.697C13.6367 13 14.5458 13.303 15.0307 13.606C15.1519 13.8485 15.3337 14.3939 15.3943 15C13.9398 16.2727 12.061 17 10.0004 17C8.00038 16.9394 6.12159 16.1515 4.60645 14.8788ZM8.72765 10.3333C7.93977 9.84847 7.69735 8.81817 7.69735 8.81817C7.69735 8.69696 7.63674 8.63635 7.51553 8.57575C7.51553 8.57575 6.78826 8.0303 6.78826 7.36363C6.78826 7.12121 6.84887 7.0606 6.90947 7.0606C7.03068 7.12121 7.2125 7.0606 7.27311 6.99999C7.39432 6.87878 7.45493 6.75757 7.39432 6.63636C7.39432 6.63636 7.03068 4.87879 7.87917 3.78788C8.30341 3.30303 8.97008 3 9.81856 3H10.3034C11.1519 3 11.8186 3.24242 12.2428 3.78788C13.0913 4.81818 12.7276 6.57575 12.7276 6.63636C12.7276 6.75757 12.7883 6.93939 12.8489 6.99999C12.9095 7.0606 13.0913 7.12121 13.2731 7.0606C13.2731 7.0606 13.3337 7.18181 13.3337 7.36363C13.3337 8.0303 12.5458 8.51514 12.5458 8.51514L12.364 8.69696C12.2428 8.99999 11.8792 9.90908 11.3337 10.2727C11.2125 10.3333 11.1519 10.4545 11.1519 10.5757V11.606C11.1519 11.7879 11.2731 11.9091 11.3943 11.9697C11.3943 11.9697 11.6973 12.0909 12.1216 12.2121C11.3337 12.8788 10.5458 13.2424 9.75795 13.2424C8.78826 13.1818 8.06099 12.697 7.63674 12.3333C8.1822 12.1515 8.60644 12.0303 8.60644 12.0303C8.78826 11.9697 8.84886 11.8485 8.84886 11.6667V10.5757C8.97008 10.5151 8.84886 10.3939 8.72765 10.3333Z" fill="#02AB6C"/>
</svg>
