<svg width="17" height="16" viewBox="0 0 17 16" fill="none" xmlns="http://www.w3.org/2000/svg">
<g clip-path="url(#clip0_1960_88)">
<path d="M1.0848 8.76503L4.36981 10.9101V14.495C4.34982 15.14 5.19982 15.5 5.6498 15.025L7.62981 13.045L10.3998 14.855C10.5248 14.935 10.6648 14.98 10.8098 14.98C11.1198 14.98 11.4098 14.7801 11.5148 14.49L16.2098 1.76003C16.2448 1.66006 16.2598 1.55505 16.2448 1.45504C16.2248 0.935046 15.6498 0.610036 15.1798 0.825031L1.1748 7.46004C0.65481 7.68505 0.599815 8.47005 1.0848 8.76503ZM11.9098 4.03505L5.85482 10.09L3.02481 8.24004L11.9098 4.03505Z" fill="#707070"/>
</g>
<defs>
<clipPath id="clip0_1960_88">
<rect width="16" height="16" fill="white" transform="translate(0.5)"/>
</clipPath>
</defs>
</svg>
