<svg width="26" height="26" viewBox="0 0 26 26" fill="none" xmlns="http://www.w3.org/2000/svg">
<path fill-rule="evenodd" clip-rule="evenodd" d="M12.1882 0C11.2898 0 10.5618 0.728 10.5618 1.625L10.3668 2.99C10.3268 3.26922 10.2148 3.53323 10.0419 3.75605C9.86889 3.97888 9.64091 4.15284 9.38033 4.26083C9.11974 4.36882 8.83554 4.40713 8.55567 4.37197C8.27579 4.33682 8.00989 4.22942 7.78411 4.06033L6.68056 3.23267C6.52966 3.08177 6.35052 2.96207 6.15337 2.88041C5.95621 2.79874 5.7449 2.75671 5.5315 2.75671C5.3181 2.75671 5.10679 2.79874 4.90963 2.88041C4.71248 2.96207 4.53334 3.08177 4.38244 3.23267L3.23267 4.38244C2.59711 5.018 2.59711 6.045 3.23267 6.67911L4.06033 7.78411C4.22939 8.00979 4.33682 8.27558 4.37205 8.55535C4.40728 8.83512 4.3691 9.11925 4.26127 9.3798C4.15344 9.64034 3.97966 9.86835 3.75702 10.0414C3.53438 10.2144 3.27055 10.3266 2.99144 10.3668L1.625 10.5632C0.728 10.5632 0 11.2898 0 12.1868V13.8132C0 14.7088 0.728 15.4368 1.625 15.4368L2.99 15.6332C3.26922 15.6732 3.53323 15.7852 3.75605 15.9581C3.97888 16.1311 4.15284 16.3591 4.26083 16.6197C4.36882 16.8803 4.40713 17.1645 4.37197 17.4443C4.33682 17.7242 4.22942 17.9901 4.06033 18.2159L3.23267 19.3194C2.59711 19.955 2.59711 20.9834 3.23267 21.6176L4.38244 22.7673C5.018 23.4029 6.045 23.4029 6.67911 22.7673L7.78411 21.9397C8.00979 21.7706 8.27558 21.6632 8.55535 21.6279C8.83512 21.5927 9.11925 21.6309 9.3798 21.7387C9.64034 21.8466 9.86835 22.0203 10.0414 22.243C10.2144 22.4656 10.3266 22.7295 10.3668 23.0086L10.5632 24.375C10.5632 25.272 11.2898 26 12.1868 26H13.8132C14.7088 26 15.4368 25.272 15.4368 24.375L15.6332 23.01C15.6732 22.7308 15.7852 22.4668 15.9581 22.2439C16.1311 22.0211 16.3591 21.8472 16.6197 21.7392C16.8803 21.6312 17.1645 21.5929 17.4443 21.628C17.7242 21.6632 17.9901 21.7706 18.2159 21.9397L19.3194 22.7673C19.955 23.4029 20.9834 23.4029 21.6176 22.7673L22.7673 21.6176C23.4014 20.982 23.4014 19.955 22.7673 19.3209L21.9397 18.2159C21.7706 17.9902 21.6632 17.7244 21.6279 17.4446C21.5927 17.1649 21.6309 16.8808 21.7387 16.6202C21.8466 16.3597 22.0203 16.1317 22.243 15.9586C22.4656 15.7856 22.7295 15.6734 23.0086 15.6332L24.375 15.4368C25.272 15.4368 26 14.7102 26 13.8132V12.1868C26 11.2912 25.272 10.5632 24.375 10.5632L23.01 10.3668C22.7308 10.3268 22.4668 10.2148 22.2439 10.0419C22.0211 9.86889 21.8472 9.64091 21.7392 9.38033C21.6312 9.11974 21.5929 8.83554 21.628 8.55567C21.6632 8.27579 21.7706 8.00989 21.9397 7.78411L22.7673 6.68056C23.4014 6.045 23.4014 5.01656 22.7673 4.38244L21.6176 3.23267C21.3129 2.92836 20.8998 2.75743 20.4692 2.75743C20.0386 2.75743 19.6256 2.92836 19.3209 3.23267L18.2159 4.06033C17.9902 4.22939 17.7244 4.33682 17.4446 4.37205C17.1649 4.40728 16.8808 4.3691 16.6202 4.26127C16.3597 4.15344 16.1317 3.97966 15.9586 3.75702C15.7856 3.53438 15.6734 3.27055 15.6332 2.99144L15.4368 1.625C15.4368 0.728 14.7102 0 13.8132 0H12.1882ZM13 16.25C13.862 16.25 14.6886 15.9076 15.2981 15.2981C15.9076 14.6886 16.25 13.862 16.25 13C16.25 12.138 15.9076 11.3114 15.2981 10.7019C14.6886 10.0924 13.862 9.75 13 9.75C12.138 9.75 11.3114 10.0924 10.7019 10.7019C10.0924 11.3114 9.75 12.138 9.75 13C9.75 13.862 10.0924 14.6886 10.7019 15.2981C11.3114 15.9076 12.138 16.25 13 16.25Z" fill="white"/>
<path fill-rule="evenodd" clip-rule="evenodd" d="M12.1882 0C11.2898 0 10.5618 0.728 10.5618 1.625L10.3668 2.99C10.3268 3.26922 10.2148 3.53323 10.0419 3.75605C9.86889 3.97888 9.64091 4.15284 9.38033 4.26083C9.11974 4.36882 8.83554 4.40713 8.55567 4.37197C8.27579 4.33682 8.00989 4.22942 7.78411 4.06033L6.68056 3.23267C6.52966 3.08177 6.35052 2.96207 6.15337 2.88041C5.95621 2.79874 5.7449 2.75671 5.5315 2.75671C5.3181 2.75671 5.10679 2.79874 4.90963 2.88041C4.71248 2.96207 4.53334 3.08177 4.38244 3.23267L3.23267 4.38244C2.59711 5.018 2.59711 6.045 3.23267 6.67911L4.06033 7.78411C4.22939 8.00979 4.33682 8.27558 4.37205 8.55535C4.40728 8.83512 4.3691 9.11925 4.26127 9.3798C4.15344 9.64034 3.97966 9.86835 3.75702 10.0414C3.53438 10.2144 3.27055 10.3266 2.99144 10.3668L1.625 10.5632C0.728 10.5632 0 11.2898 0 12.1868V13.8132C0 14.7088 0.728 15.4368 1.625 15.4368L2.99 15.6332C3.26922 15.6732 3.53323 15.7852 3.75605 15.9581C3.97888 16.1311 4.15284 16.3591 4.26083 16.6197C4.36882 16.8803 4.40713 17.1645 4.37197 17.4443C4.33682 17.7242 4.22942 17.9901 4.06033 18.2159L3.23267 19.3194C2.59711 19.955 2.59711 20.9834 3.23267 21.6176L4.38244 22.7673C5.018 23.4029 6.045 23.4029 6.67911 22.7673L7.78411 21.9397C8.00979 21.7706 8.27558 21.6632 8.55535 21.6279C8.83512 21.5927 9.11925 21.6309 9.3798 21.7387C9.64034 21.8466 9.86835 22.0203 10.0414 22.243C10.2144 22.4656 10.3266 22.7295 10.3668 23.0086L10.5632 24.375C10.5632 25.272 11.2898 26 12.1868 26H13.8132C14.7088 26 15.4368 25.272 15.4368 24.375L15.6332 23.01C15.6732 22.7308 15.7852 22.4668 15.9581 22.2439C16.1311 22.0211 16.3591 21.8472 16.6197 21.7392C16.8803 21.6312 17.1645 21.5929 17.4443 21.628C17.7242 21.6632 17.9901 21.7706 18.2159 21.9397L19.3194 22.7673C19.955 23.4029 20.9834 23.4029 21.6176 22.7673L22.7673 21.6176C23.4014 20.982 23.4014 19.955 22.7673 19.3209L21.9397 18.2159C21.7706 17.9902 21.6632 17.7244 21.6279 17.4446C21.5927 17.1649 21.6309 16.8808 21.7387 16.6202C21.8466 16.3597 22.0203 16.1317 22.243 15.9586C22.4656 15.7856 22.7295 15.6734 23.0086 15.6332L24.375 15.4368C25.272 15.4368 26 14.7102 26 13.8132V12.1868C26 11.2912 25.272 10.5632 24.375 10.5632L23.01 10.3668C22.7308 10.3268 22.4668 10.2148 22.2439 10.0419C22.0211 9.86889 21.8472 9.64091 21.7392 9.38033C21.6312 9.11974 21.5929 8.83554 21.628 8.55567C21.6632 8.27579 21.7706 8.00989 21.9397 7.78411L22.7673 6.68056C23.4014 6.045 23.4014 5.01656 22.7673 4.38244L21.6176 3.23267C21.3129 2.92836 20.8998 2.75743 20.4692 2.75743C20.0386 2.75743 19.6256 2.92836 19.3209 3.23267L18.2159 4.06033C17.9902 4.22939 17.7244 4.33682 17.4446 4.37205C17.1649 4.40728 16.8808 4.3691 16.6202 4.26127C16.3597 4.15344 16.1317 3.97966 15.9586 3.75702C15.7856 3.53438 15.6734 3.27055 15.6332 2.99144L15.4368 1.625C15.4368 0.728 14.7102 0 13.8132 0H12.1882ZM13 16.25C13.862 16.25 14.6886 15.9076 15.2981 15.2981C15.9076 14.6886 16.25 13.862 16.25 13C16.25 12.138 15.9076 11.3114 15.2981 10.7019C14.6886 10.0924 13.862 9.75 13 9.75C12.138 9.75 11.3114 10.0924 10.7019 10.7019C10.0924 11.3114 9.75 12.138 9.75 13C9.75 13.862 10.0924 14.6886 10.7019 15.2981C11.3114 15.9076 12.138 16.25 13 16.25Z" fill="#02AB6C"/>
</svg>
