<svg width="22" height="21" viewBox="0 0 22 21" fill="none" xmlns="http://www.w3.org/2000/svg">
<g clip-path="url(#clip0_1762_56)">
<path d="M10.9997 20.839C16.9814 20.839 21.8305 16.2103 21.8305 10.5006C21.8305 4.7908 16.9814 0.162109 10.9997 0.162109C5.01805 0.162109 0.168945 4.7908 0.168945 10.5006C0.168945 16.2103 5.01805 20.839 10.9997 20.839Z" fill="#02AB6C"/>
<path d="M16.974 3.18319C16.9516 3.18319 16.9295 3.17899 16.9089 3.17083C16.8883 3.16267 16.8695 3.15072 16.8537 3.13564C16.8379 3.12057 16.8254 3.10267 16.8169 3.08297C16.8083 3.06328 16.8039 3.04216 16.8039 3.02084C16.8039 2.99953 16.8083 2.97841 16.8169 2.95872C16.8254 2.93902 16.8379 2.92112 16.8537 2.90605C16.8695 2.89097 16.8883 2.87902 16.9089 2.87086C16.9295 2.8627 16.9516 2.8585 16.974 2.8585H18.2957C18.4172 2.96415 18.5362 3.0724 18.6526 3.18319H16.974ZM15.4343 3.02084C15.4343 3.1105 15.5105 3.18319 15.6044 3.18319H16.3021C16.3957 3.18319 16.4722 3.11001 16.4722 3.02084C16.4722 2.93168 16.3957 2.85834 16.3021 2.85834H15.6044C15.5105 2.85834 15.4343 2.93103 15.4343 3.02084ZM4.41571 12.5489C4.41571 12.4591 4.33955 12.3864 4.24563 12.3864H1.53658C1.443 12.3864 1.36651 12.4595 1.36651 12.5489C1.36651 12.6382 1.443 12.7112 1.53658 12.7112H4.24563C4.33955 12.7112 4.41571 12.6385 4.41571 12.5489ZM4.67988 12.5489C4.67988 12.6385 4.75603 12.7112 4.84995 12.7112H5.66361C5.70872 12.7112 5.75198 12.6941 5.78388 12.6637C5.81577 12.6332 5.83369 12.5919 5.83369 12.5489C5.83369 12.5058 5.81577 12.4645 5.78388 12.4341C5.75198 12.4036 5.70872 12.3865 5.66361 12.3865H4.84995C4.75603 12.3865 4.67988 12.4592 4.67988 12.5489ZM19.0239 8.3374C19.0239 8.24775 18.9477 8.17505 18.8538 8.17505H17.0332C16.9396 8.17505 16.8631 8.24807 16.8631 8.3374C16.8631 8.42673 16.9396 8.49974 17.0332 8.49974H18.8538C18.9477 8.49974 19.0239 8.42705 19.0239 8.3374ZM19.288 8.3374C19.288 8.42705 19.3642 8.49974 19.4581 8.49974H20.2718C20.3169 8.49974 20.3602 8.48264 20.392 8.45219C20.4239 8.42175 20.4419 8.38046 20.4419 8.3374C20.4419 8.29434 20.4239 8.25305 20.392 8.2226C20.3602 8.19216 20.3169 8.17505 20.2718 8.17505H19.4581C19.3642 8.17505 19.288 8.24775 19.288 8.3374ZM15.1652 20.0447H14.3998C14.3547 20.0447 14.3114 20.0276 14.2796 19.9972C14.2477 19.9667 14.2297 19.9254 14.2297 19.8824C14.2297 19.8393 14.2477 19.798 14.2796 19.7676C14.3114 19.7372 14.3547 19.72 14.3998 19.72H15.8975C15.6578 19.837 15.4135 19.9453 15.1652 20.0447ZM12.1837 19.72H13.6994C13.7445 19.72 13.7877 19.7372 13.8196 19.7676C13.8515 19.798 13.8694 19.8393 13.8694 19.8824C13.8694 19.9254 13.8515 19.9667 13.8196 19.9972C13.7877 20.0276 13.7445 20.0447 13.6994 20.0447H12.1834C12.1383 20.0446 12.0951 20.0274 12.0632 19.997C12.0314 19.9665 12.0134 19.9253 12.0133 19.8822C12.0133 19.7931 12.0898 19.7199 12.1834 19.7199L12.1837 19.72ZM7.73466 17.9287H5.57697C5.53186 17.9287 5.4886 17.9459 5.45671 17.9763C5.42481 18.0067 5.40689 18.048 5.40689 18.0911C5.40689 18.1341 5.42481 18.1754 5.45671 18.2059C5.4886 18.2363 5.53186 18.2534 5.57697 18.2534H7.73466C7.82841 18.2534 7.90491 18.1804 7.90491 18.0913C7.90491 18.0019 7.82825 17.9287 7.73466 17.9287ZM4.96486 18.0913C4.96486 18.0014 4.88871 17.9287 4.79478 17.9287H4.61201C4.56691 17.9287 4.52365 17.9459 4.49175 17.9763C4.45986 18.0067 4.44194 18.048 4.44194 18.0911C4.44194 18.1341 4.45986 18.1754 4.49175 18.2059C4.52365 18.2363 4.56691 18.2534 4.61201 18.2534H4.79478C4.88871 18.2534 4.96486 18.1807 4.96486 18.0913ZM9.43898 1.12891H11.5967C11.6418 1.12891 11.685 1.14601 11.7169 1.17646C11.7488 1.2069 11.7668 1.2482 11.7668 1.29125C11.7668 1.33431 11.7488 1.3756 11.7169 1.40605C11.685 1.43649 11.6418 1.4536 11.5967 1.4536H9.43898C9.3454 1.4536 9.26891 1.38058 9.26891 1.29141C9.26891 1.20224 9.3454 1.12891 9.43898 1.12891ZM5.4536 3.49706H7.61129C7.6564 3.49706 7.69966 3.51416 7.73155 3.54461C7.76345 3.57506 7.78137 3.61635 7.78137 3.65941C7.78137 3.70246 7.76345 3.74376 7.73155 3.7742C7.69966 3.80465 7.6564 3.82175 7.61129 3.82175H5.4536C5.40853 3.82162 5.36535 3.80448 5.33348 3.77406C5.30162 3.74364 5.28366 3.70242 5.28352 3.65941C5.28352 3.57024 5.36001 3.49706 5.4536 3.49706ZM12.2088 1.29141C12.2088 1.2016 12.2849 1.12891 12.3789 1.12891H12.5616C12.6067 1.12891 12.65 1.14601 12.6819 1.17646C12.7138 1.2069 12.7317 1.2482 12.7317 1.29125C12.7317 1.33431 12.7138 1.3756 12.6819 1.40605C12.65 1.43649 12.6067 1.4536 12.5616 1.4536H12.3789C12.2849 1.4536 12.2088 1.38091 12.2088 1.29141ZM20.077 14.9542H17.9193C17.8742 14.9542 17.8309 14.9371 17.799 14.9066C17.7671 14.8762 17.7492 14.8349 17.7492 14.7918C17.7492 14.7488 17.7671 14.7075 17.799 14.677C17.8309 14.6466 17.8742 14.6295 17.9193 14.6295H20.077C20.1706 14.6295 20.2471 14.7023 20.2471 14.7917C20.2471 14.881 20.1706 14.9542 20.077 14.9542ZM17.307 14.7917C17.307 14.8813 17.2309 14.9542 17.137 14.9542H16.9542C16.9091 14.9542 16.8658 14.9371 16.8339 14.9066C16.802 14.8762 16.7841 14.8349 16.7841 14.7918C16.7841 14.7488 16.802 14.7075 16.8339 14.677C16.8658 14.6466 16.9091 14.6295 16.9542 14.6295H17.137C17.2309 14.6295 17.307 14.7022 17.307 14.7917ZM3.34854 6.08474C3.34854 5.99493 3.27238 5.92224 3.17846 5.92224H2.89568C2.85057 5.92224 2.80731 5.93934 2.77541 5.96979C2.74352 6.00023 2.7256 6.04153 2.7256 6.08458C2.7256 6.12764 2.74352 6.16893 2.77541 6.19938C2.80731 6.22983 2.85057 6.24693 2.89568 6.24693H3.17846C3.27238 6.24693 3.34854 6.1744 3.34854 6.08474ZM2.10537 6.24709H1.12891C1.18052 6.13789 1.23315 6.02934 1.28866 5.9224H2.10554C2.15064 5.9224 2.1939 5.9395 2.2258 5.96995C2.2577 6.00039 2.27561 6.04169 2.27561 6.08474C2.27561 6.1278 2.2577 6.1691 2.2258 6.19954C2.1939 6.22999 2.15064 6.24709 2.10554 6.24709H2.10537Z" fill="#02AB6C"/>
<path d="M18.1136 4.95695V16.5044C18.1136 16.7126 18.0269 16.9123 17.8727 17.0595C17.7184 17.2067 17.5092 17.2894 17.2911 17.2894H5.1916C4.97347 17.2894 4.76428 17.2067 4.61003 17.0595C4.45579 16.9123 4.36914 16.7126 4.36914 16.5044V4.95695C4.36914 4.74874 4.45579 4.54905 4.61003 4.40182C4.76428 4.25459 4.97347 4.17188 5.1916 4.17188H17.2911C17.5092 4.17188 17.7184 4.25459 17.8727 4.40182C18.0269 4.54905 18.1136 4.74874 18.1136 4.95695Z" fill="#02AB6C"/>
<path d="M17.8722 4.72648V16.2739C17.8722 16.4821 17.7855 16.6818 17.6313 16.829C17.477 16.9763 17.2678 17.059 17.0497 17.059H4.95039C4.73226 17.059 4.52306 16.9763 4.36882 16.829C4.21458 16.6818 4.12793 16.4821 4.12793 16.2739V4.72648C4.12793 4.51827 4.21458 4.31858 4.36882 4.17135C4.52306 4.02412 4.73226 3.94141 4.95039 3.94141H17.0501C17.2682 3.94141 17.4774 4.02412 17.6316 4.17135C17.7859 4.31858 17.8725 4.51827 17.8725 4.72648H17.8722Z" fill="white"/>
<path d="M17.872 4.72678V16.2752C17.872 16.7081 17.5048 17.0602 17.0496 17.0602H4.94955C4.58402 17.0602 4.27263 16.8309 4.16602 16.5159C4.24555 16.5417 4.33186 16.5546 4.42155 16.5546H16.5216C16.9751 16.5546 17.344 16.2041 17.344 15.7695V4.22278C17.344 4.13716 17.3305 4.05639 17.3034 3.98047C17.6334 4.08224 17.872 4.37785 17.872 4.72678Z" fill="#02AB6C"/>
<path d="M16.8736 6.32427H5.12563C5.09361 6.32427 5.06289 6.31212 5.04025 6.29051C5.0176 6.26889 5.00488 6.23958 5.00488 6.20901C5.00488 6.17844 5.0176 6.14912 5.04025 6.12751C5.06289 6.10589 5.09361 6.09375 5.12563 6.09375H16.8736C16.9057 6.09375 16.9364 6.10589 16.959 6.12751C16.9817 6.14912 16.9944 6.17844 16.9944 6.20901C16.9944 6.23958 16.9817 6.26889 16.959 6.29051C16.9364 6.31212 16.9057 6.32427 16.8736 6.32427ZM16.8736 7.75485H5.12563C5.09361 7.75485 5.06289 7.74271 5.04025 7.72109C5.0176 7.69948 5.00488 7.67016 5.00488 7.63959C5.00488 7.60902 5.0176 7.57971 5.04025 7.55809C5.06289 7.53648 5.09361 7.52434 5.12563 7.52434H16.8736C16.9057 7.52434 16.9364 7.53648 16.959 7.55809C16.9817 7.57971 16.9944 7.60902 16.9944 7.63959C16.9944 7.67016 16.9817 7.69948 16.959 7.72109C16.9364 7.74271 16.9057 7.75485 16.8736 7.75485ZM16.8736 9.18543H5.12563C5.09361 9.18543 5.06289 9.17329 5.04025 9.15168C5.0176 9.13006 5.00488 9.10075 5.00488 9.07018C5.00488 9.03961 5.0176 9.01029 5.04025 8.98868C5.06289 8.96706 5.09361 8.95492 5.12563 8.95492H16.8736C16.9057 8.95492 16.9364 8.96706 16.959 8.98868C16.9817 9.01029 16.9944 9.03961 16.9944 9.07018C16.9944 9.10075 16.9817 9.13006 16.959 9.15168C16.9364 9.17329 16.9057 9.18543 16.8736 9.18543ZM16.8736 10.6162H5.12563C5.09361 10.6162 5.06289 10.604 5.04025 10.5824C5.0176 10.5608 5.00488 10.5315 5.00488 10.5009C5.00488 10.4704 5.0176 10.441 5.04025 10.4194C5.06289 10.3978 5.09361 10.3857 5.12563 10.3857H16.8736C16.9057 10.3857 16.9364 10.3978 16.959 10.4194C16.9817 10.441 16.9944 10.4704 16.9944 10.5009C16.9944 10.5315 16.9817 10.5608 16.959 10.5824C16.9364 10.604 16.9057 10.6162 16.8736 10.6162ZM16.8736 12.0468H5.12563C5.09361 12.0468 5.06289 12.0346 5.04025 12.013C5.0176 11.9914 5.00488 11.9621 5.00488 11.9315C5.00488 11.9009 5.0176 11.8716 5.04025 11.85C5.06289 11.8284 5.09361 11.8162 5.12563 11.8162H16.8736C16.9057 11.8162 16.9364 11.8284 16.959 11.85C16.9817 11.8716 16.9944 11.9009 16.9944 11.9315C16.9944 11.9621 16.9817 11.9914 16.959 12.013C16.9364 12.0346 16.9057 12.0468 16.8736 12.0468ZM16.8736 13.4774H5.12563C5.09361 13.4774 5.06289 13.4652 5.04025 13.4436C5.0176 13.422 5.00488 13.3927 5.00488 13.3621C5.00488 13.3315 5.0176 13.3022 5.04025 13.2806C5.06289 13.259 5.09361 13.2468 5.12563 13.2468H16.8736C16.9057 13.2468 16.9364 13.259 16.959 13.2806C16.9817 13.3022 16.9944 13.3315 16.9944 13.3621C16.9944 13.3927 16.9817 13.422 16.959 13.4436C16.9364 13.4652 16.9057 13.4774 16.8736 13.4774ZM16.8736 14.9081H5.12563C5.09361 14.9081 5.06289 14.896 5.04025 14.8743C5.0176 14.8527 5.00488 14.8234 5.00488 14.7928C5.00488 14.7623 5.0176 14.733 5.04025 14.7113C5.06289 14.6897 5.09361 14.6776 5.12563 14.6776H16.8736C16.9057 14.6776 16.9364 14.6897 16.959 14.7113C16.9817 14.733 16.9944 14.7623 16.9944 14.7928C16.9944 14.8234 16.9817 14.8527 16.959 14.8743C16.9364 14.896 16.9057 14.9081 16.8736 14.9081Z" fill="#02AB6C"/>
<path d="M15.4962 16.2218C15.4804 16.2218 15.4647 16.2188 15.45 16.2131C15.4353 16.2073 15.422 16.1988 15.4108 16.1881C15.3996 16.1774 15.3907 16.1647 15.3846 16.1507C15.3785 16.1367 15.3754 16.1217 15.3754 16.1066V4.8926C15.3754 4.86203 15.3881 4.83272 15.4108 4.8111C15.4334 4.78949 15.4641 4.77734 15.4961 4.77734C15.5282 4.77734 15.5589 4.78949 15.5815 4.8111C15.6042 4.83272 15.6169 4.86203 15.6169 4.8926V16.1066C15.6169 16.1702 15.5629 16.2218 15.4962 16.2218ZM13.9975 16.2218C13.9817 16.2218 13.966 16.2188 13.9513 16.2131C13.9366 16.2073 13.9233 16.1988 13.9121 16.1881C13.9009 16.1774 13.892 16.1647 13.8859 16.1507C13.8798 16.1367 13.8767 16.1217 13.8767 16.1066V4.8926C13.8767 4.86203 13.8894 4.83272 13.9121 4.8111C13.9347 4.78949 13.9654 4.77734 13.9974 4.77734C14.0295 4.77734 14.0602 4.78949 14.0828 4.8111C14.1055 4.83272 14.1182 4.86203 14.1182 4.8926V16.1066C14.1182 16.1702 14.0642 16.2218 13.9975 16.2218ZM12.4986 16.2218C12.4666 16.2218 12.4359 16.2096 12.4133 16.188C12.3907 16.1664 12.378 16.1371 12.378 16.1066V4.8926C12.378 4.86203 12.3907 4.83272 12.4133 4.8111C12.436 4.78949 12.4667 4.77734 12.4987 4.77734C12.5308 4.77734 12.5615 4.78949 12.5841 4.8111C12.6068 4.83272 12.6195 4.86203 12.6195 4.8926V16.1066C12.6195 16.1702 12.5653 16.2218 12.4986 16.2218ZM10.9999 16.2218C10.9841 16.2218 10.9684 16.2188 10.9537 16.2131C10.939 16.2073 10.9257 16.1988 10.9145 16.1881C10.9033 16.1774 10.8944 16.1647 10.8883 16.1507C10.8822 16.1367 10.8791 16.1217 10.8791 16.1066V4.8926C10.8791 4.86203 10.8918 4.83272 10.9145 4.8111C10.9371 4.78949 10.9678 4.77734 10.9998 4.77734C11.0319 4.77734 11.0626 4.78949 11.0852 4.8111C11.1079 4.83272 11.1206 4.86203 11.1206 4.8926V16.1066C11.1206 16.1702 11.0666 16.2218 10.9999 16.2218ZM9.50123 16.2218C9.48537 16.2218 9.46966 16.2188 9.455 16.2131C9.44034 16.2073 9.42702 16.1988 9.4158 16.1881C9.40458 16.1774 9.39567 16.1647 9.3896 16.1507C9.38352 16.1367 9.3804 16.1217 9.3804 16.1066V4.8926C9.3804 4.86203 9.39312 4.83272 9.41576 4.8111C9.43841 4.78949 9.46912 4.77734 9.50114 4.77734C9.53317 4.77734 9.56388 4.78949 9.58652 4.8111C9.60917 4.83272 9.62189 4.86203 9.62189 4.8926V16.1066C9.62189 16.1702 9.5679 16.2218 9.50123 16.2218ZM8.00235 16.2218C7.97035 16.2218 7.93966 16.2096 7.91703 16.188C7.8944 16.1664 7.88169 16.1371 7.88169 16.1066V4.8926C7.88169 4.86203 7.89441 4.83272 7.91705 4.8111C7.9397 4.78949 7.97041 4.77734 8.00244 4.77734C8.03446 4.77734 8.06517 4.78949 8.08782 4.8111C8.11046 4.83272 8.12318 4.86203 8.12318 4.8926V16.1066C8.12318 16.1702 8.06903 16.2218 8.00235 16.2218ZM6.50364 16.2218C6.48778 16.2218 6.47208 16.2188 6.45742 16.2131C6.44276 16.2073 6.42944 16.1988 6.41821 16.1881C6.40699 16.1774 6.39809 16.1647 6.39201 16.1507C6.38594 16.1367 6.38281 16.1217 6.38281 16.1066V4.8926C6.38281 4.86203 6.39553 4.83272 6.41818 4.8111C6.44082 4.78949 6.47153 4.77734 6.50356 4.77734C6.53558 4.77734 6.56629 4.78949 6.58894 4.8111C6.61158 4.83272 6.62431 4.86203 6.62431 4.8926V16.1066C6.62431 16.1702 6.57015 16.2218 6.50364 16.2218Z" fill="#02AB6C"/>
<path d="M16.8191 7.97422L16.5187 9.21209C16.4848 9.34891 16.3065 9.39802 16.2022 9.29868L15.9426 9.05071L13.1595 11.7075C13.0324 11.8287 12.8078 11.8287 12.6821 11.7075L11.093 10.1907L9.39983 11.8069C9.3363 11.8675 9.25017 11.9015 9.16037 11.9015C9.07056 11.9015 8.98443 11.8675 8.9209 11.8069L8.22317 11.1407L7.2022 12.1154C7.17083 12.1456 7.13353 12.1696 7.09244 12.1859C7.05134 12.2023 7.00727 12.2108 6.96274 12.2109C6.87626 12.2109 6.78961 12.1786 6.72344 12.1154C6.69194 12.0856 6.66694 12.0501 6.64987 12.011C6.63281 11.9719 6.62402 11.9299 6.62402 11.8876C6.62402 11.8452 6.63281 11.8033 6.64987 11.7642C6.66694 11.7251 6.69194 11.6896 6.72344 11.6597L7.98387 10.4553C8.04744 10.3949 8.13349 10.361 8.22317 10.3611C8.31387 10.3611 8.39917 10.3946 8.46263 10.4553L9.16037 11.1215L10.8537 9.50641C10.8849 9.47637 10.9221 9.45252 10.9631 9.43625C11.004 9.41997 11.0479 9.41159 11.0923 9.41159C11.1367 9.41159 11.1806 9.41997 11.2215 9.43625C11.2625 9.45252 11.2997 9.47637 11.3309 9.50641L12.92 11.022L15.4639 8.59372L15.2043 8.34592C15.1002 8.24658 15.1515 8.07615 15.2948 8.04384L16.5918 7.75857C16.623 7.75167 16.6555 7.75244 16.6863 7.76081C16.7171 7.76918 16.7452 7.78487 16.7679 7.80642C16.7906 7.82797 16.8072 7.85467 16.8162 7.88402C16.8251 7.91337 16.8261 7.9444 16.8191 7.97422Z" fill="#02AB6C"/>
<path d="M8.12077 11.0426L8.22349 11.1407L7.20252 12.1154C7.17115 12.1456 7.13385 12.1695 7.09276 12.1859C7.05167 12.2023 7.00759 12.2108 6.96306 12.2109C6.87658 12.2109 6.78993 12.1785 6.72377 12.1154C6.70658 12.0988 6.69116 12.0806 6.67773 12.0611C6.73324 12.096 6.7967 12.1128 6.86033 12.1128C6.94698 12.1128 7.03346 12.0805 7.09963 12.0173L8.12077 11.0426ZM10.9906 10.0924L11.0933 10.1907L9.40015 11.8068C9.33662 11.8674 9.25049 11.9015 9.16069 11.9015C9.07088 11.9015 8.98476 11.8674 8.92123 11.8068L8.81867 11.7088C8.88219 11.7693 8.96824 11.8033 9.05796 11.8033C9.14769 11.8033 9.23374 11.7693 9.29726 11.7088L10.9906 10.0924ZM15.8402 8.95262L15.9429 9.05068L13.1598 11.7075C13.0327 11.8287 12.8081 11.8287 12.6824 11.7075L12.5797 11.6093C12.7054 11.7306 12.93 11.7306 13.0569 11.6093L15.8402 8.95262ZM16.8194 7.97419L16.519 9.21205C16.4852 9.34888 16.3068 9.39799 16.2025 9.29864L16.0998 9.20042C16.2039 9.29993 16.3824 9.25082 16.4163 9.114L16.7165 7.87597C16.726 7.8372 16.7219 7.80118 16.7084 7.76758C16.7883 7.80118 16.8409 7.88389 16.8194 7.97419Z" fill="#02AB6C"/>
</g>
<defs>
<clipPath id="clip0_1762_56">
<rect width="22" height="21" fill="white"/>
</clipPath>
</defs>
</svg>
