<svg width="30" height="16" viewBox="0 0 30 16" fill="none" xmlns="http://www.w3.org/2000/svg">
    <path d="M29.7744 1.72656C29.7744 1.17428 29.3267 0.726564 28.7744 0.726564L19.7744 0.726564C19.2221 0.726564 18.7744 1.17428 18.7744 1.72656C18.7744 2.27885 19.2221 2.72656 19.7744 2.72656L27.7744 2.72656L27.7744 10.7266C27.7744 11.2788 28.2221 11.7266 28.7744 11.7266C29.3267 11.7266 29.7744 11.2788 29.7744 10.7266L29.7744 1.72656ZM15.9337 15.9815L29.4815 2.43367L28.0673 1.01946L14.5195 14.5673L15.9337 15.9815Z" fill="#02AB6C"/>
    <path d="M16 14.6185L9 6.61847" stroke="#02AB6C" stroke-width="2"/>
    <path d="M10.0658 6.95994L1.00033 14.9599" stroke="#02AB6C" stroke-width="2"/>
    </svg>
    