<svg width="18" height="22" viewBox="0 0 18 22" fill="none" xmlns="http://www.w3.org/2000/svg">
<path d="M0 18.6667C0.202247 17.7143 0.404495 16.9524 0.505618 16.5714C1.31461 16.1905 2.52809 15.7143 3.64045 15.3333C4.14607 15.8095 5.96629 17.4286 8.49438 17.5238H8.69663C10.5169 17.5238 12.236 16.7619 13.8539 15.2381C15.0674 15.7143 16.5843 16.1905 17.3933 16.6667C17.5955 17.0476 17.8989 17.9048 18 18.8571C15.573 20.8571 12.4382 22 9 22C5.66292 21.9048 2.52809 20.6667 0 18.6667ZM6.8764 11.5238C5.5618 10.7619 5.1573 9.14286 5.1573 9.14286C5.1573 8.95238 5.05618 8.85714 4.85393 8.7619C4.85393 8.7619 3.64045 7.90476 3.64045 6.85714C3.64045 6.47619 3.74157 6.38095 3.8427 6.38095C4.04494 6.47619 4.34831 6.38095 4.44944 6.28571C4.65169 6.09524 4.75281 5.90476 4.65168 5.71429C4.65168 5.71429 4.04494 2.95238 5.46067 1.2381C6.16854 0.476191 7.2809 0 8.69663 0H9.50562C10.9213 0 12.0337 0.380953 12.7416 1.2381C14.1573 2.85714 13.5506 5.61905 13.5506 5.71429C13.5506 5.90476 13.6517 6.19048 13.7528 6.28571C13.8539 6.38095 14.1573 6.47619 14.4607 6.38095C14.4607 6.38095 14.5618 6.57143 14.5618 6.85714C14.5618 7.90476 13.2472 8.66667 13.2472 8.66667L12.9438 8.95238C12.7416 9.42857 12.1348 10.8571 11.2247 11.4286C11.0225 11.5238 10.9213 11.7143 10.9213 11.9048V13.5238C10.9213 13.8095 11.1236 14 11.3258 14.0952C11.3258 14.0952 11.8315 14.2857 12.5393 14.4762C11.2247 15.5238 9.91011 16.0952 8.59551 16.0952C6.97753 16 5.76404 15.2381 5.05618 14.6667C5.96629 14.381 6.67416 14.1905 6.67416 14.1905C6.97753 14.0952 7.07865 13.9048 7.07865 13.619V11.9048C7.2809 11.8095 7.07865 11.619 6.8764 11.5238Z" fill="#02AB6C"/>
</svg>
