<svg width="57" height="45" viewBox="0 0 57 45" fill="none" xmlns="http://www.w3.org/2000/svg">
<g filter="url(#filter0_d_1763_832)">
<path d="M10.875 32.3617C11.1386 31.0435 11.4023 29.989 11.5341 29.4617C12.5886 28.9345 14.1704 28.2754 15.6204 27.7481C16.2795 28.4072 18.6523 30.6481 21.9477 30.7799H22.2113C24.5841 30.7799 26.825 29.7254 28.9341 27.6163C30.5159 28.2754 32.4931 28.9345 33.5477 29.5935C33.8113 30.1208 34.2068 31.3072 34.3386 32.6254C31.175 35.3935 27.0886 36.9753 22.6068 36.9753C18.2568 36.8435 14.1704 35.1299 10.875 32.3617ZM19.8386 22.4754C18.125 21.4208 17.5977 19.1799 17.5977 19.1799C17.5977 18.9163 17.4659 18.7845 17.2023 18.6526C17.2023 18.6526 15.6204 17.4663 15.6204 16.0163C15.6204 15.489 15.7523 15.3572 15.8841 15.3572C16.1477 15.489 16.5432 15.3572 16.675 15.2254C16.9386 14.9617 17.0704 14.6981 16.9386 14.4345C16.9386 14.4345 16.1477 10.6117 17.9932 8.23903C18.9159 7.18448 20.3659 6.52539 22.2113 6.52539H23.2659C25.1113 6.52539 26.5613 7.05266 27.4841 8.23903C29.3295 10.4799 28.5386 14.3027 28.5386 14.4345C28.5386 14.6981 28.6704 15.0936 28.8022 15.2254C28.9341 15.3572 29.3295 15.489 29.725 15.3572C29.725 15.3572 29.8568 15.6208 29.8568 16.0163C29.8568 17.4663 28.1432 18.5208 28.1432 18.5208L27.7477 18.9163C27.4841 19.5754 26.6932 21.5526 25.5068 22.3436C25.2432 22.4754 25.1113 22.739 25.1113 23.0026V25.2435C25.1113 25.639 25.375 25.9026 25.6386 26.0345C25.6386 26.0345 26.2977 26.2981 27.2204 26.5617C25.5068 28.0117 23.7932 28.8026 22.0795 28.8026C19.9704 28.6708 18.3886 27.6163 17.4659 26.8254C18.6523 26.4299 19.575 26.1663 19.575 26.1663C19.9704 26.0345 20.1023 25.7708 20.1023 25.3754V23.0026C20.3659 22.8708 20.1023 22.6072 19.8386 22.4754Z" fill="#02AB6C"/>
<path d="M41.1338 22.4297H37.7354V25.8281C37.7354 26.202 37.4295 26.5078 37.0557 26.5078C36.6818 26.5078 36.376 26.202 36.376 25.8281V22.4297H32.9775C32.6037 22.4297 32.2979 22.1238 32.2979 21.75C32.2979 21.3762 32.6037 21.0703 32.9775 21.0703H36.376V17.6719C36.376 17.298 36.6818 16.9922 37.0557 16.9922C37.4295 16.9922 37.7354 17.298 37.7354 17.6719V21.0703H41.1338C41.5076 21.0703 41.8135 21.3762 41.8135 21.75C41.8135 22.1238 41.5076 22.4297 41.1338 22.4297Z" fill="#02AB6C"/>
</g>
<defs>
<filter id="filter0_d_1763_832" x="-4" y="0" width="64.0889" height="51.5" filterUnits="userSpaceOnUse" color-interpolation-filters="sRGB">
<feFlood flood-opacity="0" result="BackgroundImageFix"/>
<feColorMatrix in="SourceAlpha" type="matrix" values="0 0 0 0 0 0 0 0 0 0 0 0 0 0 0 0 0 0 127 0" result="hardAlpha"/>
<feOffset dy="4"/>
<feGaussianBlur stdDeviation="2"/>
<feComposite in2="hardAlpha" operator="out"/>
<feColorMatrix type="matrix" values="0 0 0 0 0 0 0 0 0 0 0 0 0 0 0 0 0 0 0.15 0"/>
<feBlend mode="normal" in2="BackgroundImageFix" result="effect1_dropShadow_1763_832"/>
<feBlend mode="normal" in="SourceGraphic" in2="effect1_dropShadow_1763_832" result="shape"/>
</filter>
</defs>
</svg>
