<svg width="12" height="14" viewBox="0 0 12 14" fill="none" xmlns="http://www.w3.org/2000/svg">
<path d="M0.605957 11.8788C0.727169 11.2727 0.848381 10.7879 0.908987 10.5454C1.39383 10.303 2.12111 9.99998 2.78777 9.75756C3.0908 10.0606 4.18171 11.0909 5.69686 11.1515H5.81807C6.90898 11.1515 7.93928 10.6667 8.90898 9.69695C9.63625 9.99998 10.5453 10.303 11.0302 10.606C11.1514 10.8485 11.3332 11.3939 11.3938 12C9.93928 13.2727 8.06049 14 5.99989 14C3.99989 13.9394 2.12111 13.1515 0.605957 11.8788ZM4.72716 7.33332C3.93929 6.84847 3.69686 5.81817 3.69686 5.81817C3.69686 5.69696 3.63626 5.63635 3.51504 5.57575C3.51504 5.57575 2.78777 5.0303 2.78777 4.36363C2.78777 4.12121 2.84838 4.0606 2.90898 4.0606C3.0302 4.12121 3.21201 4.0606 3.27262 3.99999C3.39383 3.87878 3.45444 3.75757 3.39383 3.63636C3.39383 3.63636 3.0302 1.87879 3.87868 0.787878C4.30292 0.30303 4.96959 0 5.81807 0H6.30292C7.1514 0 7.81807 0.242424 8.24231 0.787878C9.09079 1.81818 8.72716 3.57575 8.72716 3.63636C8.72716 3.75757 8.78776 3.93939 8.84837 3.99999C8.90897 4.0606 9.09079 4.12121 9.27261 4.0606C9.27261 4.0606 9.33322 4.18181 9.33322 4.36363C9.33322 5.0303 8.54534 5.51514 8.54534 5.51514L8.36352 5.69696C8.24231 5.99999 7.87867 6.90908 7.33322 7.27272C7.21201 7.33332 7.1514 7.45453 7.1514 7.57575V8.60605C7.1514 8.78786 7.27261 8.90908 7.39383 8.96968C7.39383 8.96968 7.69686 9.09089 8.1211 9.21211C7.33322 9.87877 6.54534 10.2424 5.75746 10.2424C4.78777 10.1818 4.0605 9.69696 3.63626 9.33332C4.18171 9.1515 4.60595 9.03029 4.60595 9.03029C4.78777 8.96968 4.84837 8.84847 4.84837 8.66665V7.57575C4.96959 7.51514 4.84838 7.39393 4.72716 7.33332Z" fill="#02AB6C"/>
</svg>
