<svg width="18" height="18" viewBox="0 0 18 18" fill="none" xmlns="http://www.w3.org/2000/svg">
<g clip-path="url(#clip0_1762_147)">
<path d="M5.52331 6.64318H6.52309C6.63801 6.16087 6.78711 5.71741 6.96412 5.32535C6.62171 5.51593 6.30753 5.7533 6.03065 6.03062C5.84272 6.21846 5.67286 6.42355 5.52331 6.64318ZM5.52331 11.3563C5.67287 11.5759 5.84273 11.781 6.03065 11.9689C6.30753 12.2462 6.62171 12.4835 6.96412 12.6741C6.78707 12.2821 6.63801 11.8386 6.52309 11.3563H5.52331ZM12.4762 6.64318C12.3267 6.42356 12.1568 6.21847 11.9689 6.03062C11.692 5.7533 11.3778 5.51593 11.0354 5.32535C11.2125 5.71741 11.3615 6.16087 11.4765 6.64318H12.4762ZM9.7891 5.69656C9.45069 5.01973 9.11118 4.80078 8.99977 4.80078C8.88836 4.80078 8.54886 5.01973 8.21045 5.69656C8.07028 5.97693 7.94997 6.29629 7.85157 6.64318H10.148C10.0495 6.29629 9.92927 5.9769 9.7891 5.69656ZM8.21045 12.3029C8.54886 12.9797 8.88836 13.1987 8.99977 13.1987C9.11118 13.1987 9.45069 12.9797 9.7891 12.3029C9.92927 12.0225 10.0496 11.7032 10.148 11.3563H7.85157C7.95001 11.7032 8.07028 12.0226 8.21045 12.3029ZM6.25759 8.99974C6.25759 8.63313 6.27573 8.27503 6.31004 7.92856H4.93821C4.84775 8.27397 4.80078 8.6332 4.80078 8.99974C4.80078 9.36628 4.84771 9.7255 4.93821 10.0709H6.31004C6.27496 9.71493 6.25745 9.35744 6.25759 8.99974ZM11.742 8.99974C11.742 9.36635 11.7238 9.72445 11.6895 10.0709H13.0613C13.1518 9.7255 13.1988 9.36628 13.1988 8.99974C13.1988 8.6332 13.1518 8.27397 13.0613 7.92856H11.6895C11.7246 8.28454 11.7421 8.64203 11.742 8.99974Z" fill="#02AB6C"/>
<path d="M9 0C4.02943 0 0 4.02943 0 9C0 13.9706 4.02943 18 9 18C13.9706 18 18 13.9706 18 9C18 4.02943 13.9706 0 9 0ZM9 14.4844C5.97108 14.4844 3.51562 12.0289 3.51562 9C3.51562 5.97108 5.97108 3.51562 9 3.51562C12.0289 3.51562 14.4844 5.97108 14.4844 9C14.4844 12.0289 12.0289 14.4844 9 14.4844Z" fill="#02AB6C"/>
<path d="M7.60323 7.92969C7.56368 8.27777 7.54297 8.63728 7.54297 9.00086C7.54297 9.36445 7.56368 9.72396 7.60323 10.072H10.3963C10.4358 9.72396 10.4565 9.36445 10.4565 9.00086C10.4565 8.63728 10.4358 8.27777 10.3963 7.92969H7.60323ZM11.0354 12.6753C11.3778 12.4847 11.692 12.2473 11.9689 11.97C12.1568 11.7821 12.3266 11.577 12.4762 11.3574H11.4764C11.3615 11.8397 11.2124 12.2832 11.0354 12.6753Z" fill="#02AB6C"/>
</g>
<defs>
<clipPath id="clip0_1762_147">
<rect width="18" height="18" fill="white"/>
</clipPath>
</defs>
</svg>
