<svg width="23" height="9" viewBox="0 0 23 9" fill="none" xmlns="http://www.w3.org/2000/svg">
<path d="M4.866 8.025C4.22533 7.26033 3.564 6.599 2.882 6.041C2.2 5.483 1.49733 5.02833 0.774 4.677V4.119C2.2 3.39567 3.564 2.27967 4.866 0.770999H5.951C5.62033 1.47367 5.28967 2.09367 4.959 2.631C4.62833 3.14767 4.308 3.58167 3.998 3.933V4.863C4.308 5.19367 4.62833 5.62767 4.959 6.165C5.28967 6.68167 5.62033 7.30167 5.951 8.025H4.866ZM3.843 5.049V3.747H22.226V5.049H3.843Z" fill="white"/>
<path d="M4.866 8.025C4.22533 7.26033 3.564 6.599 2.882 6.041C2.2 5.483 1.49733 5.02833 0.774 4.677V4.119C2.2 3.39567 3.564 2.27967 4.866 0.770999H5.951C5.62033 1.47367 5.28967 2.09367 4.959 2.631C4.62833 3.14767 4.308 3.58167 3.998 3.933V4.863C4.308 5.19367 4.62833 5.62767 4.959 6.165C5.28967 6.68167 5.62033 7.30167 5.951 8.025H4.866ZM3.843 5.049V3.747H22.226V5.049H3.843Z" fill="black" fill-opacity="0.48"/>
</svg>
